<?xml version="1.0" encoding="UTF-8"?>
<!DOCTYPE svg PUBLIC "-//W3C//DTD SVG 1.1//EN" "http://www.w3.org/Graphics/SVG/1.1/DTD/svg11.dtd">
<!-- Creator: CorelDRAW -->
<svg xmlns="http://www.w3.org/2000/svg" xml:space="preserve" width="30mm" height="30mm" version="1.1" style="shape-rendering:geometricPrecision; text-rendering:geometricPrecision; image-rendering:optimizeQuality; fill-rule:evenodd; clip-rule:evenodd"
viewBox="0 0 3000 3000"
 xmlns:xlink="http://www.w3.org/1999/xlink"
 xmlns:xodm="http://www.corel.com/coreldraw/odm/2003">
 <defs>
  <style type="text/css">
   <![CDATA[
    .fil0 {fill:#0C6316}
    .fil1 {fill:#149A7B}
    .fil2 {fill:#149A7B;fill-rule:nonzero}
   ]]>
  </style>
 </defs>
 <g id="Capa_x0020_1">
  <metadata id="CorelCorpID_0Corel-Layer"/>
  <g id="_2109252634352">
   <path class="fil0" d="M1392.84 2703.53c6.71,34.52 13.99,101.37 15.65,134.11 1.62,32.76 -2.36,31.38 -52.09,15.02 -243.71,-80.12 -338.65,-168.72 -533.34,-322.68 -60.45,-47.79 -65.16,-45.45 -96.39,-37.3 -131.62,34.37 -259.53,3.69 -386.24,-88.57 -134.44,-97.89 -249.67,-302.13 -300.91,-466.85 -54.65,-175.68 -62.28,-425.58 -37.4,-606.58 34.98,-254.51 134.17,-541.47 277.54,-746.54l105.13 -127.56c-114.66,209.46 -148.82,402 51.7,585.15 256.79,234.56 533.66,207.02 673.99,539.79 66.87,158.56 69.44,275.78 30.58,446.22 -25.76,112.96 -63.58,214.34 -113.43,295.87 -30.77,50.32 -27.12,43.87 -80.6,12.28 -193.48,-114.29 -340.99,-272.58 -473.34,-484.14 -92.54,-147.93 -146.51,-303.2 -186.68,-432.79 -10.19,-32.84 -10.75,-37.1 -10.8,-37.43 0,0 28.97,190.28 73.28,311.45 106.23,290.47 311.33,506.79 537.43,699.22 200.59,170.73 263.55,187.54 475.76,268.15 17.26,6.55 23.41,8.67 30.16,43.18z"/>
   <path class="fil1" d="M2625.79 608.36c1.87,-3.36 8.12,4.16 51.6,61.17 149.48,196.01 282.64,394.29 306.78,684.91 38.04,457.77 -172.31,1036.27 -592.51,1236.15 -172,81.82 -394.07,128.3 -575.54,55.59 -274.16,-109.84 -390.26,-463.8 -297.52,-695.29 92.75,-231.49 218.96,-285.42 435.66,-332.51 216.69,-47.09 460.47,-71.18 600.91,-324.33 137.15,-247.21 67.27,-679.77 70.62,-685.69z"/>
   <path class="fil2" d="M1493.6 296.05c98.17,-171.74 196.35,-257.6 392.7,-257.6 216.77,0 392.69,153.87 392.69,343.47 0,343.47 -392.69,686.94 -785.39,1030.42 -392.69,-343.48 -785.39,-686.95 -785.39,-1030.42 0,-189.6 175.92,-343.47 392.7,-343.47 196.35,0 294.52,85.86 392.69,257.6z"/>
  </g>
 </g>
</svg>
