<?xml version="1.0" encoding="UTF-8"?>
<!DOCTYPE svg PUBLIC "-//W3C//DTD SVG 1.1//EN" "http://www.w3.org/Graphics/SVG/1.1/DTD/svg11.dtd">
<!-- Creator: CorelDRAW -->
<svg xmlns="http://www.w3.org/2000/svg" xml:space="preserve" width="27.0932mm" height="27.0932mm" version="1.1" shape-rendering="geometricPrecision" text-rendering="geometricPrecision" image-rendering="optimizeQuality" fill-rule="evenodd" clip-rule="evenodd"
viewBox="0 0 2709 2709"
 xmlns:xlink="http://www.w3.org/1999/xlink"
 xmlns:xodm="http://www.corel.com/coreldraw/odm/2003">
 <g id="Capa_x0020_1">
  <metadata id="CorelCorpID_0Corel-Layer"/>
  <rect fill="none" width="2709" height="2709"/>
  <g id="_2972438773680">
   <path fill="#0C6316" d="M1274 2415c6,29 12,86 13,114 1,28 -2,27 -44,13 -206,-68 -287,-143 -452,-273 -51,-40 -55,-38 -82,-32 -111,29 -220,3 -327,-75 -114,-83 -211,-256 -255,-395 -46,-149 -53,-360 -32,-514 30,-215 114,-458 235,-632l89 -108c-97,177 -126,340 44,495 217,199 452,175 571,457 57,134 59,234 26,378 -22,96 -54,181 -96,250 -26,43 -23,37 -68,10 -164,-97 -289,-231 -401,-410 -78,-125 -124,-257 -158,-366 -9,-28 -9,-31 -9,-32 0,0 25,161 62,264 90,246 264,429 455,592 170,145 223,159 403,227 15,6 20,7 26,37z"/>
   <path fill="#149A7B" d="M2318 641c2,-3 7,4 44,52 127,166 239,334 260,580 32,388 -146,877 -502,1047 -146,69 -334,109 -487,47 -232,-93 -330,-393 -252,-589 79,-196 185,-242 369,-282 183,-40 390,-60 509,-275 116,-209 57,-576 60,-581z"/>
   <path fill="#149A7B" fill-rule="nonzero" d="M1359 377c83,-145 166,-218 332,-218 184,0 332,130 332,291 0,291 -332,582 -665,872 -332,-291 -665,-582 -665,-872 0,-161 149,-291 332,-291 166,0 249,73 332,218z"/>
  </g>
 </g>
</svg>
