<?xml version="1.0" encoding="UTF-8"?>
<!DOCTYPE svg PUBLIC "-//W3C//DTD SVG 1.1//EN" "http://www.w3.org/Graphics/SVG/1.1/DTD/svg11.dtd">
<!-- Creator: CorelDRAW -->
<svg xmlns="http://www.w3.org/2000/svg" xml:space="preserve" width="100mm" height="100mm" version="1.1" shape-rendering="geometricPrecision" text-rendering="geometricPrecision" image-rendering="optimizeQuality" fill-rule="evenodd" clip-rule="evenodd"
viewBox="0 0 10000 10000"
 xmlns:xlink="http://www.w3.org/1999/xlink"
 xmlns:xodm="http://www.corel.com/coreldraw/odm/2003">
 <g id="Capa_x0020_1">
  <metadata id="CorelCorpID_0Corel-Layer"/>
  <g id="_2280288066160">
   <path fill="#0C6316" d="M4677 9178c22,115 47,338 52,447 5,109 -8,105 -174,50 -812,-267 -1129,-562 -1778,-1076 -202,-159 -217,-151 -321,-124 -439,115 -865,12 -1287,-295 -448,-326 -832,-1007 -1003,-1556 -182,-586 -208,-1419 -125,-2022 117,-848 447,-1805 925,-2488l350 -425c-382,698 -496,1340 172,1951 856,782 1779,690 2247,1799 223,529 231,919 102,1487 -86,377 -212,714 -378,986 -103,168 -90,146 -269,41 -645,-381 -1137,-909 -1578,-1614 -308,-493 -488,-1011 -622,-1443 -34,-109 -36,-124 -36,-125 0,0 97,634 244,1038 354,968 1038,1689 1791,2331 669,569 879,625 1586,894 58,22 78,29 101,144z"/>
   <path fill="#149A7B" d="M8787 2194c6,-11 27,14 172,204 498,653 942,1314 1023,2283 127,1526 -574,3454 -1975,4120 -573,273 -1314,428 -1918,185 -914,-366 -1301,-1546 -992,-2318 309,-772 730,-951 1452,-1108 722,-157 1535,-237 2003,-1081 457,-824 224,-2266 235,-2286z"/>
   <path fill="#149A7B" fill-rule="nonzero" d="M5013 1153c327,-572 654,-859 1309,-859 723,0 1309,513 1309,1145 0,1145 -1309,2290 -2618,3435 -1309,-1145 -2618,-2290 -2618,-3435 0,-632 586,-1145 1309,-1145 654,0 982,286 1309,859z"/>
  </g>
 </g>
</svg>
