<?xml version="1.0" encoding="UTF-8"?>
<svg
    xmlns="http://www.w3.org/2000/svg"
    version="1.2"
    baseProfile="tiny"
    width="256"
    height="256"
    viewBox="0 0 1024 1024">

    <!-- Path verde hoja -->
    <path
        d="M517 101C418 164 350 244 309 334C246 469 248 623 314 748C340 797 380 845 431 875C470 898 517 906 565 904C641 900 705 857 751 794C814 707 846 606 843 505C842 463 835 420 822 382C812 353 799 324 782 298C760 264 734 232 703 205C673 179 639 158 601 143C576 134 552 128 527 125C524 125 520 124 517 124Z"
        fill="#0A6129" />

    <!-- Path naranja/gota -->
    <path
        d="M522 276C492 319 462 361 437 406C403 469 379 538 375 608C372 660 380 712 406 759C423 789 448 814 479 830C503 843 530 849 557 848C613 846 662 818 695 770C715 740 727 705 730 669C735 618 723 566 701 520C685 487 664 456 642 427C612 386 580 346 548 307C539 297 531 286 522 276Z"
        fill="#E9A637" />

    <!-- Path rojo/corazón -->
    <path
        d="M512 711C476 673 442 638 409 602C372 563 343 517 332 463C325 425 328 386 343 350C358 312 387 282 424 267C467 248 518 258 552 292C566 306 578 323 590 339C602 323 614 306 628 292C662 258 713 248 756 267C793 282 822 312 837 350C851 386 854 425 848 463C837 517 808 563 771 602C738 638 704 673 668 711C640 740 604 770 559 798C545 806 528 806 514 798C469 770 433 740 405 711Z"
        fill="#C12C2C" />

</svg>
