<?xml version="1.0" encoding="UTF-8"?>
<svg
    xmlns="http://www.w3.org/2000/svg"
    version="1.2"
    baseProfile="tiny"
    width="256"
    height="256"
    viewBox="0 0 2464.5 2321.2">

    <path
        d="M1149.74 2197.2c5.51,28.35 11.49,83.27 12.85,110.17 1.34,26.91 -1.94,25.78 -42.79,12.34 -200.21,-65.82 -278.2,-138.6 -438.14,-265.09 -49.66,-39.26 -53.53,-37.33 -79.19,-30.63 -108.12,28.23 -213.2,3.03 -317.3,-72.77 -110.44,-80.42 -205.1,-248.2 -247.19,-383.52 -44.9,-144.32 -51.17,-349.62 -30.73,-498.3 28.74,-209.09 110.22,-444.83 228,-613.29l86.36 -104.79c-94.19,172.06 -122.25,330.24 42.48,480.7 210.96,192.7 438.4,170.06 553.69,443.44 54.93,130.26 57.04,226.56 25.12,366.57 -21.16,92.8 -52.23,176.08 -93.19,243.06 -25.27,41.34 -22.28,36.04 -66.21,10.09 -158.94,-93.89 -280.12,-223.92 -388.85,-397.73 -76.02,-121.52 -120.36,-249.08 -153.36,-355.53 -8.37,-26.98 -8.83,-30.48 -8.87,-30.75 0,0 23.8,156.32 60.2,255.86 87.27,238.62 255.75,416.33 441.5,574.41 164.79,140.25 216.51,154.06 390.84,220.28 14.18,5.38 19.23,7.13 24.78,35.48z"
        fill="#0C6316" />

    <path
        d="M2162.62 476c1.53,-2.76 6.66,3.42 42.38,50.26 122.8,161.02 232.19,323.91 252.02,562.66 31.25,376.06 -141.55,851.29 -486.74,1015.5 -141.31,67.21 -323.74,105.4 -472.82,45.67 -225.22,-90.24 -320.6,-381.02 -244.41,-571.19 76.19,-190.17 179.88,-234.48 357.89,-273.16 178.02,-38.69 378.28,-58.48 493.66,-266.43 112.67,-203.1 55.26,-558.45 58.02,-563.31z"
        fill="#149A7B" />

    <path
        d="M1232.51 219.44c80.65,-141.08 161.31,-211.62 322.61,-211.62 178.08,0 322.6,126.4 322.6,282.16 0,282.17 -322.6,564.33 -645.21,846.49 -322.6,-282.16 -645.2,-564.32 -645.2,-846.49 0,-155.76 144.52,-282.16 322.6,-282.16 161.3,0 241.96,70.54 322.6,211.62z"
        fill="#149A7B"
        fill-rule="nonzero" />

</svg>