<?xml version="1.0" encoding="UTF-8"?>
<!DOCTYPE svg PUBLIC "-//W3C//DTD SVG 1.1//EN" "http://www.w3.org/Graphics/SVG/1.1/DTD/svg11.dtd">
<!-- Creator: CorelDRAW -->
<svg xmlns="http://www.w3.org/2000/svg" xml:space="preserve" width="25.258mm" height="24.932mm" version="1.1" style="shape-rendering:geometricPrecision; text-rendering:geometricPrecision; image-rendering:optimizeQuality; fill-rule:evenodd; clip-rule:evenodd"
viewBox="0 0 2525.8 2493.2"
 xmlns:xlink="http://www.w3.org/1999/xlink"
 xmlns:xodm="http://www.corel.com/coreldraw/odm/2003">
 <defs>
  <style type="text/css">
   <![CDATA[
    .fil1 {fill:#00A859}
    .fil0 {fill:#1BB18E}
    .fil2 {fill:#B0D831}
   ]]>
  </style>
 </defs>
 <g id="Capa_x0020_1">
  <metadata id="CorelCorpID_0Corel-Layer"/>
  <g id="_1922763240736">
   <path class="fil0" d="M1927.07 1704.06c-196.73,102.37 -558.5,233.37 -520.55,470.43 24.67,154.11 169.6,259.04 323.71,234.37 58.45,-9.35 216.53,-100.45 278.44,-144.93 156.66,-116.4 284.21,-267.62 372.95,-441.41 119.25,-236.08 163.51,-511.4 121.67,-772.8 -87.01,-543.51 -508.71,-950.06 -1021.13,-1043.23 268.82,61.98 499.25,210.92 662.01,460.24 271.18,415.38 319.39,958.14 -217.1,1237.33z"/>
   <path class="fil1" d="M1170.68 118.59c-140.33,-84.66 -295.77,-71.1 -438.43,-18.69 -517.35,235.46 -815.97,792.84 -722.28,1354.1 93.74,550.59 531.54,975.4 1086.61,1045.66 -58.57,-62.92 -116.67,-157.33 -109.83,-245.21 -580.95,-108.93 -993.74,-571.47 -910.56,-1188.24 7.85,-51.81 48.31,-94.89 102.82,-103.62 44.16,-7.07 99.78,18.83 153.01,18.16 254.33,-3.22 468.27,-167.22 465.1,-423.54 -3.14,-251.46 59.28,-474.98 373.56,-438.62z"/>
   <path class="fil2" d="M801.34 921.87c125.15,-133.47 327.81,-133.88 453.45,-1.26 122.65,-130.94 321.51,-134.59 448.33,-6.57 325.82,328.86 -237.51,759.6 -447.12,983.14 -215.25,-232.16 -763.46,-645.94 -454.66,-975.31z"/>
  </g>
 </g>
</svg>
