<?xml version="1.0" encoding="UTF-8"?>
<!DOCTYPE svg PUBLIC "-//W3C//DTD SVG 1.1//EN" "http://www.w3.org/Graphics/SVG/1.1/DTD/svg11.dtd">
<!-- Creator: CorelDRAW -->
<svg xmlns="http://www.w3.org/2000/svg" xml:space="preserve" width="101.345mm" height="28.912mm" version="1.1" style="shape-rendering:geometricPrecision; text-rendering:geometricPrecision; image-rendering:optimizeQuality; fill-rule:evenodd; clip-rule:evenodd"
viewBox="0 0 10134.5 2891.2"
 xmlns:xlink="http://www.w3.org/1999/xlink"
 xmlns:xodm="http://www.corel.com/coreldraw/odm/2003">
 <defs>
  <style type="text/css">
   <![CDATA[
    .fil3 {fill:#00A859}
    .fil2 {fill:#1BB18E}
    .fil4 {fill:#B0D831}
    .fil0 {fill:#00A859;fill-rule:nonzero}
    .fil1 {fill:#1BB18E;fill-rule:nonzero}
   ]]>
  </style>
 </defs>
 <g id="Capa_x0020_1">
  <metadata id="CorelCorpID_0Corel-Layer"/>
  <g id="_1971414574512">
   <path class="fil0" d="M5227.86 497.67l103.79 0 227.13 306.02 0 -92.99c0,-59.75 -4.59,-107.21 -13.68,-142.27 -9.08,-35.05 -23.51,-53.76 -43.4,-56l0 -14.76 136.61 0 0 14.76c-38.06,3.74 -57.08,66.59 -57.08,188.54l0 211.64 -14.65 0 -270.1 -365.13 0 116.62c0,73.75 4.49,128.15 13.47,163.11 8.87,35.06 23.41,53.87 43.61,56.54l0 14.75 -135.32 0 0 -14.75c38.05,-5.99 57.08,-78.03 57.08,-216.13l0 -108.38c0,-18.6 -3.64,-31 -10.9,-37.09 -7.27,-6.09 -19.46,-9.3 -36.56,-9.72l0 -14.76z"/>
   <path id="_1" class="fil0" d="M5690.36 650.31c48.1,-31.64 93.42,-47.46 135.85,-47.46 19.88,0 34.21,4.38 43.08,13.15 8.76,8.76 13.04,23.62 12.82,44.46l0 195.71c0,9.41 4.28,14.11 12.72,14.11 8.23,0 22.88,-9.62 43.72,-28.86l0 19.24c-31.75,31.21 -57.61,46.82 -77.6,46.82 -17.96,0 -26.94,-9.94 -26.94,-29.93l0 -46.17c-26.08,26.61 -48.09,45.96 -66.16,58.03 -17.96,12.08 -35.06,18.07 -51.09,18.07 -15.61,0 -28.97,-6.09 -39.98,-18.28 -11,-12.18 -16.56,-27.04 -16.56,-44.57 0,-45.21 57.93,-93.95 173.79,-146.22l0 -37.73c0,-11.55 -3.42,-21.06 -10.26,-28.54 -6.94,-7.59 -16.35,-11.33 -28.54,-11.33 -20.52,0 -38.9,9.94 -54.93,29.93 -16.04,19.98 -25.66,44.89 -28.76,74.6l-21.16 0 0 -75.03zm146.86 73.75c-38.48,7.91 -69.69,21.49 -93.63,40.72 -23.94,19.24 -35.92,39.02 -35.92,59.22 0,12.83 3.96,23.19 11.98,30.89 8.01,7.7 18.49,11.54 31.42,11.54 23.94,0 44.14,-12.61 60.71,-37.94 16.57,-25.23 25.01,-60.07 25.44,-104.43z"/>
   <path id="_2" class="fil0" d="M6066.7 513.07l0 16.03c-13.25,3.1 -19.88,17.96 -19.88,44.46 0,17.96 1.5,30.47 4.6,37.52 2.99,7.16 8.44,13.04 16.03,17.64 7.7,4.59 17.96,6.84 30.79,6.84l26.18 0 0 14.11 -76.95 0 0 201.48c0,6.52 1.28,11.44 3.95,14.75 2.57,3.31 6.52,5.02 11.65,5.02 10.26,0 25.55,-8.23 45.75,-24.79 2.35,-1.93 4.06,-3.21 5.34,-4.07l0 17.96c-35.59,31.64 -64.02,47.46 -85.19,47.46 -9.94,0 -17.31,-3.85 -22.23,-11.44 -4.92,-7.59 -7.37,-18.92 -7.37,-33.99l0 -212.38 -47.46 0 0 -14.11c18.38,0 31.42,-3.64 39.12,-10.9 7.69,-7.27 11.54,-19.99 11.54,-38.27l0 -47.03 64.13 -26.29z"/>
   <path id="_3" class="fil0" d="M6138.85 624.02l108.38 -19.89 0 12.19c-8.55,2.46 -12.82,9.73 -12.82,21.59l0 193.36c0,12.72 2.77,22.66 8.44,30.03 5.56,7.27 13.04,10.91 22.45,10.91 23.94,0 47.67,-17.96 71.4,-53.88 23.72,-35.91 35.59,-78.13 35.59,-126.66 0,-18.7 -2.46,-32.6 -7.27,-41.68 -4.81,-9.19 -13.47,-13.68 -25.76,-13.68 -3.95,0 -9.83,0.75 -17.64,2.46l0 -14.75 109.03 -19.89 0 12.19c-8.98,1.5 -13.47,8.66 -13.47,21.59l0 201.59c0,19.56 7.16,29.29 21.59,29.29 8.55,0 19.56,-3.1 32.92,-9.41l0 14.75 -87.11 34.63 -15.5 0 0 -104.11c-32.81,44.58 -58.79,72.9 -77.92,84.87 -19.13,11.97 -36.77,17.96 -53.12,17.96 -34.53,0 -51.73,-24.37 -51.73,-73.01l0 -170.48c0,-18.06 -9.84,-27.15 -29.61,-27.15 -4.28,0 -10.16,0.64 -17.85,1.93l0 -14.75z"/>
   <path id="_4" class="fil0" d="M6500.02 636.84l82.41 -33.35 13.79 0 0 101.33c21.49,-36.55 40.62,-62.53 57.51,-77.81 16.88,-15.29 34.09,-22.88 51.84,-22.88 6.84,0 15.07,1.61 24.69,4.71l0 95.98 -22.45 0c-0.21,-37.62 -11.12,-56.43 -32.71,-56.43 -21.27,0 -40.4,17.52 -57.07,52.69 -16.68,35.17 -25.02,75.03 -25.02,119.5 0,26.19 4.81,43.4 14.54,51.31 9.62,7.9 28.11,11.86 55.37,11.86l0 14.75 -162.9 0 0 -14.75c17.1,-0.43 29.4,-4.17 36.88,-11.22 7.48,-7.06 11.22,-19.78 11.22,-38.16l0 -161.61c0,-18.71 -6.73,-28.12 -20.31,-28.12 -5.66,0 -14.85,2.36 -27.79,6.95l0 -14.75z"/>
   <path id="_5" class="fil0" d="M6786.05 650.31c48.1,-31.64 93.42,-47.46 135.85,-47.46 19.88,0 34.21,4.38 43.08,13.15 8.76,8.76 13.04,23.62 12.82,44.46l0 195.71c0,9.41 4.28,14.11 12.72,14.11 8.23,0 22.88,-9.62 43.72,-28.86l0 19.24c-31.75,31.21 -57.61,46.82 -77.6,46.82 -17.96,0 -26.94,-9.94 -26.94,-29.93l0 -46.17c-26.08,26.61 -48.09,45.96 -66.16,58.03 -17.96,12.08 -35.06,18.07 -51.09,18.07 -15.61,0 -28.97,-6.09 -39.98,-18.28 -11,-12.18 -16.56,-27.04 -16.56,-44.57 0,-45.21 57.93,-93.95 173.79,-146.22l0 -37.73c0,-11.55 -3.42,-21.06 -10.26,-28.54 -6.94,-7.59 -16.35,-11.33 -28.54,-11.33 -20.52,0 -38.9,9.94 -54.93,29.93 -16.04,19.98 -25.66,44.89 -28.76,74.6l-21.16 0 0 -75.03zm146.86 73.75c-38.48,7.91 -69.69,21.49 -93.63,40.72 -23.94,19.24 -35.92,39.02 -35.92,59.22 0,12.83 3.96,23.19 11.98,30.89 8.01,7.7 18.49,11.54 31.42,11.54 23.94,0 44.14,-12.61 60.71,-37.94 16.57,-25.23 25.01,-60.07 25.44,-104.43z"/>
   <path id="_6" class="fil0" d="M7166.24 468.17c-8.55,4.39 -12.82,11.98 -12.82,22.88l0 343.32c0,18.6 3.74,31.32 11.33,38.26 7.59,7.06 19.56,10.69 36.12,11.12l0 14.75 -143.65 0 0 -14.75c17.1,-0.43 29.39,-4.17 36.87,-11.44 7.49,-7.16 11.23,-19.77 11.23,-37.94l0 -298.11c0,-19.24 -7.91,-28.86 -23.73,-28.86 -6.63,0 -14.75,1.71 -24.37,5.03l0 -14.76 109.02 -42.32 0 12.82z"/>
   <path id="_7" class="fil0" d="M7479.85 819.62c-46.5,58.57 -91.82,87.86 -136.07,87.86 -31.1,0 -58.46,-13.47 -82.19,-40.51 -23.84,-26.94 -35.7,-58.9 -35.7,-95.99 0,-42.75 14.11,-81.23 42.32,-115.43 28.22,-34.31 61.57,-51.42 99.84,-51.42 30.89,0 55.26,10.8 73.43,32.5 18.17,21.59 27.68,47.99 28.75,79.09l-201.37 0c-0.43,8.13 -0.65,14.11 -0.65,17.96 0,37.09 9.84,68.09 29.4,92.89 19.56,24.9 43.72,37.3 72.47,37.3 35.91,0 72.47,-21.59 109.77,-64.77l0 20.52zm-60.92 -118.65c-2.46,-24.37 -10.27,-43.29 -23.41,-56.75 -13.15,-13.47 -28.65,-20.2 -46.5,-20.2 -18.7,0 -35.49,7.26 -50.24,21.91 -14.75,14.53 -23.83,32.92 -27.14,55.04l147.29 0z"/>
   <path id="_8" class="fil0" d="M7523.68 597.72l14.75 0 0 2.46c0,7.8 5.45,11.65 16.35,11.65l189.51 0 0 15.28 -183.41 256.64 67.02 0c66.48,0 100.9,-26.72 102.93,-80.17l21.16 0 0 109.03 -14.75 0c-0.43,-5.77 -2.35,-9.51 -5.66,-11.33 -3.32,-1.82 -10.05,-2.78 -19.99,-2.78l-207.79 0 0 -15.07 183.63 -256.85 -59.32 0c-53.23,0 -81.13,23.52 -83.91,70.55l-20.52 0 0 -99.41z"/>
   <path id="_9" class="fil0" d="M7819.86 650.31c48.1,-31.64 93.42,-47.46 135.85,-47.46 19.88,0 34.21,4.38 43.08,13.15 8.76,8.76 13.04,23.62 12.82,44.46l0 195.71c0,9.41 4.28,14.11 12.72,14.11 8.23,0 22.88,-9.62 43.72,-28.86l0 19.24c-31.75,31.21 -57.61,46.82 -77.6,46.82 -17.96,0 -26.94,-9.94 -26.94,-29.93l0 -46.17c-26.08,26.61 -48.09,45.96 -66.16,58.03 -17.96,12.08 -35.06,18.07 -51.09,18.07 -15.61,0 -28.97,-6.09 -39.98,-18.28 -11,-12.18 -16.56,-27.04 -16.56,-44.57 0,-45.21 57.93,-93.95 173.79,-146.22l0 -37.73c0,-11.55 -3.42,-21.06 -10.26,-28.54 -6.94,-7.59 -16.35,-11.33 -28.54,-11.33 -20.52,0 -38.9,9.94 -54.93,29.93 -16.04,19.98 -25.66,44.89 -28.76,74.6l-21.16 0 0 -75.03zm146.86 73.75c-38.48,7.91 -69.69,21.49 -93.63,40.72 -23.94,19.24 -35.92,39.02 -35.92,59.22 0,12.83 3.96,23.19 11.98,30.89 8.01,7.7 18.49,11.54 31.42,11.54 23.94,0 44.14,-12.61 60.71,-37.94 16.57,-25.23 25.01,-60.07 25.44,-104.43z"/>
   <path class="fil1" d="M3285.01 1229.47c-33.31,-31.48 -58.19,-64.78 -75.03,-100.65 -16.83,-35.86 -25.25,-73.2 -25.25,-112.72 0,-102.85 47.21,-192.88 142,-270.1 94.43,-77.23 205.32,-115.66 332.32,-115.66 63.68,0 148.59,18.3 254.73,54.9l0 335.98 -79.05 0c-5.86,-93.69 -34.41,-170.18 -86.01,-229.47 -51.24,-59.29 -114.56,-88.94 -188.85,-88.94 -60.76,0 -111.26,18.67 -150.79,56 -39.89,37.33 -59.66,84.54 -59.66,141.63 0,54.9 19.77,106.14 59.66,154.09 39.16,47.58 132.85,121.14 281.08,221.05 112.36,75.4 188.12,136.15 227.28,183 38.43,47.21 57.83,105.04 57.83,173.84 0,112.36 -51.61,212.65 -155.18,300.12 -103.58,87.83 -221.06,131.75 -352.09,131.75 -94.05,0 -199.46,-21.96 -316.21,-65.88l0 -388.68 76.86 0c0,108.7 31.47,199.47 94.79,272.67 62.95,72.83 137.98,109.43 224.72,109.43 79.42,0 142.37,-23.06 188.48,-69.54 46.48,-46.48 69.54,-105.41 69.54,-177.14 0,-62.22 -19.03,-116.75 -57.1,-163.96 -38.06,-46.48 -124.43,-114.19 -259.48,-203.49 -73.93,-48.68 -142.37,-98.09 -204.59,-148.23z"/>
   <path id="_1_6" class="fil1" d="M4196.7 1183.72c164.69,-108.33 319.87,-162.5 465.17,-162.5 68.07,0 117.12,15.01 147.49,45.02 30.01,30.01 44.65,80.88 43.92,152.25l0 670.13c0,32.21 14.64,48.31 43.55,48.31 28.19,0 78.33,-32.94 149.69,-98.82l0 65.88c-108.69,106.87 -197.26,160.3 -265.7,160.3 -61.49,0 -92.23,-34.03 -92.23,-102.47l0 -158.11c-89.31,91.13 -164.7,157.37 -226.55,198.73 -61.49,41.36 -120.05,61.85 -174.94,61.85 -53.44,0 -99.19,-20.86 -136.89,-62.58 -37.69,-41.72 -56.72,-92.6 -56.72,-152.62 0,-154.81 198.36,-321.7 595.1,-500.67l0 -129.2c0,-39.52 -11.72,-72.1 -35.14,-97.72 -23.79,-25.98 -56,-38.79 -97.72,-38.79 -70.27,0 -133.22,34.04 -188.12,102.48 -54.9,68.44 -87.83,153.71 -98.45,255.46l-72.46 0 0 -256.93zm502.87 252.53c-131.76,27.09 -238.63,73.57 -320.61,139.45 -81.98,65.87 -122.97,133.58 -122.97,202.75 0,43.92 13.54,79.42 40.99,105.78 27.45,26.35 63.31,39.52 107.6,39.52 81.98,0 151.15,-43.18 207.88,-129.92 56.73,-86.38 85.64,-205.69 87.11,-357.58z"/>
   <path id="_2_7" class="fil1" d="M5505.48 1648.53c-8.42,1.46 -21.23,3.29 -38.43,5.49 -51.24,8.42 -89.67,12.81 -115.29,12.81 -86.74,0 -158.84,-23.79 -216.67,-71 -57.46,-47.58 -86.37,-109.07 -86.37,-184.83 0,-98.45 48.68,-187.39 146.4,-266.44 97.35,-79.42 205.32,-118.95 323.9,-118.95 30.74,0 56.73,2.93 78.32,8.42 21.23,5.86 61.49,20.5 120.05,43.92 62.21,25.62 106.86,41.72 133.95,49.04 27.08,6.96 59.29,10.62 96.25,10.62l76.13 0 0 50.5 -218.86 0c17.2,36.97 25.62,71.01 25.62,101.75 0,42.82 -11.35,86.74 -34.41,131.75 -22.69,45.02 -77.95,105.04 -165.06,180.07 -85.27,73.57 -127.73,125.17 -127.73,155.18 0,23.79 15.37,44.65 46.12,63.32 30.01,19.4 83.08,41.35 159.57,66.61 109.79,36.6 190.68,72.46 241.92,108.33 51.6,35.87 77.22,83.45 77.22,142.74 0,107.6 -68.44,198.73 -205.69,274.49 -137.24,75.39 -291.69,113.09 -464.07,113.09 -127,0 -232.77,-22.32 -317.31,-66.98 -84.18,-44.65 -126.27,-103.57 -126.27,-176.4 0,-72.1 47.58,-136.52 142.37,-193.61 94.79,-56.73 222.52,-100.65 383.56,-132.12 -25.62,-19.04 -45.02,-38.07 -58.2,-57.83 -13.17,-19.76 -19.76,-40.63 -19.76,-62.22 0,-29.28 9.88,-56.73 29.65,-82.71 19.76,-25.62 57.46,-60.76 113.09,-105.04zm-56.37 -559.23c-71.73,0 -127.36,25.62 -167.25,77.22 -39.9,51.6 -59.66,113.09 -59.66,184.46 0,72.46 19.76,133.95 59.66,184.82 39.89,50.88 92.59,76.13 157.74,76.13 63.31,0 116.02,-24.89 158.47,-75.03 42.09,-50.14 63.32,-112.72 63.32,-187.75 0,-76.13 -20.5,-138.35 -61.12,-187.02 -40.99,-48.68 -91.5,-72.83 -151.16,-72.83zm57.83 894.84c-146.4,37.33 -256.56,79.42 -330.12,126.27 -73.57,47.21 -110.53,98.45 -110.53,154.45 0,50.14 30.01,95.52 90.4,136.14 60.39,40.63 150.79,60.76 271.56,60.76 139.08,0 248.51,-26.72 328.3,-79.79 80.15,-53.07 120.04,-113.45 120.04,-181.53 0,-37.33 -16.1,-66.61 -48.68,-88.2 -32.2,-21.6 -98.45,-49.41 -198,-84.18l-122.97 -43.92z"/>
   <path id="_3_8" class="fil1" d="M6131.69 1137.61l282.18 -114.19 47.21 0 0 346.96c73.56,-125.17 139.08,-214.11 196.9,-266.44 57.83,-52.34 116.75,-78.33 177.51,-78.33 23.42,0 51.6,5.49 84.54,16.11l0 328.66 -76.86 0c-0.73,-128.83 -38.06,-193.25 -111.99,-193.25 -72.83,0 -138.34,60.03 -195.44,180.44 -57.09,120.41 -85.64,256.92 -85.64,409.17 0,89.67 16.47,148.6 49.77,175.68 32.94,27.08 96.26,40.62 189.59,40.62l0 50.51 -557.77 0 0 -50.51c58.56,-1.46 100.65,-14.27 126.27,-38.43 25.61,-24.15 38.42,-67.7 38.42,-130.65l0 -553.38c0,-64.05 -23.05,-96.26 -69.53,-96.26 -19.4,0 -50.88,8.06 -95.16,23.79l0 -50.5z"/>
   <path id="_4_9" class="fil1" d="M7111.08 1183.72c164.69,-108.33 319.87,-162.5 465.17,-162.5 68.07,0 117.12,15.01 147.49,45.02 30.01,30.01 44.65,80.88 43.92,152.25l0 670.13c0,32.21 14.64,48.31 43.55,48.31 28.19,0 78.33,-32.94 149.69,-98.82l0 65.88c-108.69,106.87 -197.26,160.3 -265.7,160.3 -61.49,0 -92.23,-34.03 -92.23,-102.47l0 -158.11c-89.31,91.13 -164.7,157.37 -226.55,198.73 -61.49,41.36 -120.05,61.85 -174.94,61.85 -53.44,0 -99.19,-20.86 -136.89,-62.58 -37.69,-41.72 -56.72,-92.6 -56.72,-152.62 0,-154.81 198.36,-321.7 595.1,-500.67l0 -129.2c0,-39.52 -11.72,-72.1 -35.14,-97.72 -23.79,-25.98 -56,-38.79 -97.72,-38.79 -70.27,0 -133.22,34.04 -188.12,102.48 -54.9,68.44 -87.83,153.71 -98.45,255.46l-72.46 0 0 -256.93zm502.87 252.53c-131.76,27.09 -238.63,73.57 -320.61,139.45 -81.98,65.87 -122.97,133.58 -122.97,202.75 0,43.92 13.54,79.42 40.99,105.78 27.45,26.35 63.31,39.52 107.6,39.52 81.98,0 151.15,-43.18 207.88,-129.92 56.73,-86.38 85.64,-205.69 87.11,-357.58z"/>
   <path id="_5_10" class="fil1" d="M8612.73 661.09l371.12 -140.54 0 43.92c-29.28,12.07 -43.92,36.6 -43.92,72.83l0 1200.81c0,58.19 25.62,87.11 76.86,87.11 23.05,0 51.6,-7.69 85.64,-23.43l0 54.9 -276.33 107.6 -50.87 0 0 -346.59c-122.97,157.01 -213.37,254 -270.83,290.96 -57.83,36.97 -114.19,55.63 -170.19,55.63 -93.69,0 -169.08,-42.45 -226.18,-127 -57.46,-84.91 -86.01,-181.89 -86.01,-290.96 0,-150.05 55.27,-292.06 166.16,-425.28 110.9,-133.22 233.87,-199.83 368.19,-199.83 30.01,0 63.32,4.76 99.92,13.91 36.23,9.52 76.12,23.79 118.94,43.55l0 -289.5c0,-60.75 -23.42,-91.49 -69.9,-91.49 -24.52,0 -55.27,7.68 -92.6,22.69l0 -59.29zm160.67 560.33c-50.14,-41.36 -98.82,-72.47 -146.76,-92.96 -47.94,-20.13 -94.43,-30.38 -140.17,-30.38 -90.77,0 -163.6,46.85 -218.87,140.91 -55.26,94.06 -83.08,201.66 -83.08,322.43 0,100.65 23.43,186.29 70.64,256.56 47.21,70.64 105.04,105.77 173.48,105.77 96.99,0 180.8,-63.68 251.43,-191.04 70.64,-127 106.14,-254.37 106.14,-381.73 0,-48.31 -4.39,-91.86 -12.81,-129.56z"/>
   <path id="_6_11" class="fil1" d="M9284.69 1183.72c164.69,-108.33 319.87,-162.5 465.17,-162.5 68.07,0 117.12,15.01 147.49,45.02 30.01,30.01 44.65,80.88 43.92,152.25l0 670.13c0,32.21 14.64,48.31 43.55,48.31 28.19,0 78.33,-32.94 149.69,-98.82l0 65.88c-108.69,106.87 -197.26,160.3 -265.7,160.3 -61.49,0 -92.23,-34.03 -92.23,-102.47l0 -158.11c-89.31,91.13 -164.7,157.37 -226.55,198.73 -61.49,41.36 -120.05,61.85 -174.94,61.85 -53.44,0 -99.19,-20.86 -136.89,-62.58 -37.69,-41.72 -56.72,-92.6 -56.72,-152.62 0,-154.81 198.36,-321.7 595.1,-500.67l0 -129.2c0,-39.52 -11.72,-72.1 -35.14,-97.72 -23.79,-25.98 -56,-38.79 -97.72,-38.79 -70.27,0 -133.22,34.04 -188.12,102.48 -54.9,68.44 -87.83,153.71 -98.45,255.46l-72.46 0 0 -256.93zm502.87 252.53c-131.76,27.09 -238.63,73.57 -320.61,139.45 -81.98,65.87 -122.97,133.58 -122.97,202.75 0,43.92 13.54,79.42 40.99,105.78 27.45,26.35 63.31,39.52 107.6,39.52 81.98,0 151.15,-43.18 207.88,-129.92 56.73,-86.38 85.64,-205.69 87.11,-357.58z"/>
   <g>
    <g>
     <path class="fil2" d="M2104.09 2049.55c-235.79,51.31 -534.19,227.54 -446.39,510.13 65.93,212.21 280.2,263.73 464.48,167.7 524.81,-273.45 835.71,-841.25 774.68,-1437.79 -59.77,-584.28 -457.74,-1052.2 -979.79,-1229.37 477.53,177.96 853.36,671.98 844.07,1188.82 -6.94,384.75 -278.71,718.18 -657.05,800.51z"/>
     <path class="fil3" d="M1585.9 75.78c-223.89,-122.52 -444.19,-79.55 -669.53,9.77 -576.72,228.6 -947.1,803.38 -914.38,1427.81 43.35,827.52 768.39,1451.78 1594.86,1370.73 -45.31,-35.14 -88.47,-72.98 -129.22,-113.29 -744.51,-7.04 -1364.48,-592.67 -1403.96,-1346.34 -5.97,-113.84 -15.7,-515.6 148.84,-524.22 48.41,-2.54 153.06,63.05 239.25,75.75 289.38,42.64 559.09,-156.78 602.07,-448.38 42.14,-286.07 181.85,-550.23 532.07,-451.83z"/>
     <path class="fil4" d="M929.73 1000.48c143.91,-153.48 376.94,-153.95 521.4,-1.45 141.03,-150.56 369.7,-154.76 515.51,-7.56 374.65,378.14 -273.1,873.43 -514.11,1130.46 -247.51,-266.95 -877.86,-742.73 -522.8,-1121.45z"/>
    </g>
   </g>
  </g>
 </g>
</svg>
