<?xml version="1.0" encoding="UTF-8"?>
<!DOCTYPE svg PUBLIC "-//W3C//DTD SVG 1.1//EN" "http://www.w3.org/Graphics/SVG/1.1/DTD/svg11.dtd">
<!-- Creator: CorelDRAW -->
<svg xmlns="http://www.w3.org/2000/svg" xml:space="preserve" width="29.045mm" height="28.912mm" version="1.1" style="shape-rendering:geometricPrecision; text-rendering:geometricPrecision; image-rendering:optimizeQuality; fill-rule:evenodd; clip-rule:evenodd"
viewBox="0 0 2904.5 2891.2"
 xmlns:xlink="http://www.w3.org/1999/xlink"
 xmlns:xodm="http://www.corel.com/coreldraw/odm/2003">
 <defs>
  <style type="text/css">
   <![CDATA[
    .fil1 {fill:#00A859}
    .fil0 {fill:#1BB18E}
    .fil2 {fill:#B0D831}
   ]]>
  </style>
 </defs>
 <g id="Capa_x0020_1">
  <metadata id="CorelCorpID_0Corel-Layer"/>
  <g id="_1971422029904">
   <g>
    <path class="fil0" d="M2100.09 2051.75c-235.79,51.31 -534.19,227.54 -446.39,510.13 65.93,212.21 280.2,263.73 464.48,167.7 524.81,-273.45 835.71,-841.25 774.68,-1437.79 -59.77,-584.28 -457.74,-1052.2 -979.79,-1229.37 477.53,177.96 853.36,671.98 844.07,1188.82 -6.94,384.75 -278.71,718.18 -657.05,800.51z"/>
    <path class="fil1" d="M1581.9 77.98c-223.89,-122.52 -444.19,-79.55 -669.53,9.77 -576.72,228.6 -947.1,803.38 -914.38,1427.81 43.35,827.52 768.39,1451.78 1594.86,1370.73 -45.31,-35.14 -88.47,-72.98 -129.22,-113.29 -744.51,-7.04 -1364.48,-592.67 -1403.96,-1346.34 -5.97,-113.84 -15.7,-515.6 148.84,-524.22 48.41,-2.54 153.06,63.05 239.25,75.75 289.38,42.64 559.09,-156.78 602.07,-448.38 42.14,-286.07 181.85,-550.23 532.07,-451.83z"/>
    <path class="fil2" d="M925.73 1002.68c143.91,-153.48 376.94,-153.95 521.4,-1.45 141.03,-150.56 369.7,-154.76 515.51,-7.56 374.65,378.14 -273.1,873.43 -514.11,1130.46 -247.51,-266.95 -877.86,-742.73 -522.8,-1121.45z"/>
   </g>
  </g>
 </g>
</svg>
