<?xml version="1.0" encoding="UTF-8"?>
<!DOCTYPE svg PUBLIC "-//W3C//DTD SVG 1.1//EN" "http://www.w3.org/Graphics/SVG/1.1/DTD/svg11.dtd">
<!-- Creator: CorelDRAW -->
<svg xmlns="http://www.w3.org/2000/svg" xml:space="preserve" width="61.348mm" height="50.301mm" version="1.1" style="shape-rendering:geometricPrecision; text-rendering:geometricPrecision; image-rendering:optimizeQuality; fill-rule:evenodd; clip-rule:evenodd"
viewBox="0 0 6134.8 5030.1"
 xmlns:xlink="http://www.w3.org/1999/xlink"
 xmlns:xodm="http://www.corel.com/coreldraw/odm/2003">
 <defs>
  <style type="text/css">
   <![CDATA[
    .fil0 {fill:#0C6316}
    .fil1 {fill:#149A7B}
    .fil3 {fill:#0C6316;fill-rule:nonzero}
    .fil2 {fill:#149A7B;fill-rule:nonzero}
   ]]>
  </style>
 </defs>
 <g id="Capa_x0020_1">
  <metadata id="CorelCorpID_0Corel-Layer"/>
  <g id="_1941822857088">
   <g>
    <path class="fil0" d="M2982.4 2207.77c5.54,28.49 11.54,83.67 12.92,110.69 1.34,27.04 -1.96,25.91 -43,12.4 -201.16,-66.13 -279.53,-139.26 -440.22,-266.35 -49.9,-39.44 -53.79,-37.51 -79.57,-30.78 -108.63,28.37 -214.21,3.05 -318.8,-73.11 -110.97,-80.8 -206.08,-249.38 -248.37,-385.34 -45.11,-145.01 -51.41,-351.28 -30.88,-500.67 28.88,-210.08 110.75,-446.94 229.09,-616.2l86.77 -105.29c-94.64,172.88 -122.84,331.81 42.68,482.99 211.96,193.61 440.48,170.87 556.32,445.54 55.19,130.88 57.31,227.64 25.24,368.31 -21.26,93.25 -52.48,176.92 -93.63,244.22 -25.4,41.53 -22.39,36.2 -66.53,10.13 -159.7,-94.33 -281.45,-224.98 -390.7,-399.61 -76.38,-122.1 -120.93,-250.26 -154.09,-357.23 -8.4,-27.1 -8.87,-30.62 -8.91,-30.89 0,0 23.91,157.06 60.49,257.07 87.68,239.75 256.97,418.31 443.6,577.15 165.57,140.91 217.53,154.79 392.7,221.32 14.24,5.41 19.32,7.16 24.89,35.65z"/>
    <path class="fil1" d="M4000.09 478.4c1.54,-2.78 6.69,3.43 42.59,50.49 123.38,161.78 233.29,325.45 253.21,565.33 31.4,377.85 -142.22,855.34 -489.06,1020.33 -141.97,67.53 -325.27,105.89 -475.06,45.88 -226.29,-90.66 -322.12,-382.83 -245.57,-573.9 76.56,-191.07 180.73,-235.59 359.59,-274.46 178.87,-38.87 380.08,-58.75 496,-267.7 113.21,-204.05 55.53,-561.09 58.3,-565.97z"/>
    <path class="fil2" d="M3065.57 220.61c81.03,-141.75 162.07,-212.62 324.13,-212.62 178.93,0 324.14,127 324.14,283.5 0,283.51 -324.14,567.01 -648.27,850.51 -324.14,-283.5 -648.27,-567 -648.27,-850.51 0,-156.5 145.21,-283.5 324.13,-283.5 162.07,0 243.11,70.87 324.14,212.62z"/>
   </g>
   <g>
    <path class="fil3" d="M511.37 3567.7c0,8.26 -3.84,12.48 -11.33,12.48 -12.29,0 -30.91,-0.19 -55.49,-0.57 -24.57,-0.39 -43,-0.58 -55.47,-0.58 -6.72,0 -10.18,-5.38 -10.18,-16.32 0,-18.43 0.58,-46.27 1.73,-83.9 1.15,-37.44 1.73,-65.66 1.73,-84.28 0,-15.17 -0.19,-37.44 -0.58,-67.39 -0.38,-29.76 -0.57,-52.22 -0.57,-67.2 0,-42.81 -6.15,-72.96 -18.44,-90.62 -15.16,-20.93 -42.81,-31.49 -83.32,-31.49 -18.62,0 -44.73,10.56 -78.14,31.68 -35.14,22.08 -52.8,41.86 -52.8,59.14l0 337.52c0,9.21 -3.65,14.01 -10.75,14.01 -11.9,0 -29.95,-0.19 -53.95,-0.57 -24.19,-0.39 -42.05,-0.58 -54.14,-0.58 -7.87,0 -11.9,-4.22 -11.9,-12.86 0,-29.76 0.57,-74.11 1.53,-133.44 0.96,-59.32 1.35,-103.87 1.35,-134.01 0,-79.87 -8.26,-153.59 -24.77,-220.98 -1.15,-3.46 -1.73,-5.95 -1.73,-7.3 0,-3.84 2.5,-6.52 7.3,-8.06 2.68,-0.19 24,-3.84 64.31,-10.37 40.32,-6.52 61.44,-9.79 63.36,-9.79 2.11,0 3.65,3.07 4.42,9.02 1.92,23.24 6.14,46.85 12.86,70.47 19.58,-15.36 45.31,-34.56 76.99,-57.41 39.36,-24 77.56,-35.9 114.23,-35.9 70.45,0 118.64,20.35 144.37,61.24 19.2,30.15 28.8,78.53 28.8,145.72 0,11.72 -0.38,29.38 -0.96,53.38 -0.58,24 -0.77,42.04 -0.77,54.14 0,24.96 0.39,62.59 1.15,112.32 0.77,49.91 1.16,87.54 1.16,112.5zm763.14 -497.83c0,1.53 -0.57,4.8 -1.72,10.17 -14.98,85.82 -22.47,159.74 -22.47,221.95 0,3.84 4.8,87.93 14.4,252.47l0.58 7.87c0.38,10.94 -4.61,16.32 -14.98,16.32 -10.36,0 -25.92,1.15 -46.84,3.64 -20.74,2.5 -36.29,3.65 -46.47,3.65 -7.1,0 -12.47,-13.05 -16.31,-39.16 -3.84,-26.12 -7.3,-39.17 -10.76,-39.17 -2.3,0 -12.28,7.29 -30.33,21.89 -22.08,17.85 -42.81,31.48 -61.82,40.89 -29.76,14.98 -59.33,22.46 -88.89,22.46 -72.77,0 -134.21,-28.99 -184.12,-87.16 -47.23,-55.49 -70.85,-120.19 -70.85,-194.1 0,-83.14 23.81,-152.06 71.42,-206.4 49.92,-56.63 115.58,-84.86 196.99,-84.86 57.4,0 107.51,19.97 150.13,59.71 6.34,7.49 16.32,18.43 29.95,32.64 0.96,1.15 2.12,1.73 3.27,1.73 2.3,0 5.57,-11.71 9.6,-35.52 4.22,-23.61 9.4,-35.52 15.93,-35.52 10.18,0 29.18,2.88 57.02,8.45 30.91,6.72 46.27,12.86 46.27,18.05zm-143.99 235.19c0,-46.08 -13.63,-85.44 -41.09,-118.46 -28.79,-35.52 -65.66,-53.37 -110.78,-53.37 -44.92,0 -82.36,17.66 -112.5,52.79 -28.8,33.79 -43.2,73.34 -43.2,119.04 0,45.31 14.4,84.67 43.2,118.07 30.14,34.75 67.58,52.22 112.5,52.22 43.97,0 80.64,-17.85 110.21,-53.37 27.84,-33.41 41.66,-72.19 41.66,-116.92zm657.36 171.06c0,8.26 -0.77,19.39 -2.31,33.6 -1.72,17.47 -2.88,28.8 -3.26,33.98 -0.38,6.72 -0.96,10.76 -1.73,12.29 -1.53,2.69 -4.99,5.18 -10.56,7.87 -30.72,14.79 -78.91,22.08 -144.76,22.08 -86.97,0 -130.75,-39.74 -131.13,-119.23 0,-31.87 0.58,-79.67 1.73,-143.6 1.15,-63.94 1.73,-111.94 1.73,-143.81 0,-15.36 -7.68,-23.61 -23.04,-24.76 -14.02,0 -27.65,-0.2 -41.09,-0.58 -7.87,-1.92 -11.9,-17.28 -11.9,-46.27 0,-10.75 0.77,-22.27 2.3,-34.37 1.15,-9.02 7.11,-14.4 18.05,-16.32 9.21,0 18.43,-0.19 27.45,-0.57 17.28,-0.77 25.92,-8.45 25.92,-23.04 0,-14.98 -0.38,-37.82 -1.15,-68.73 -0.77,-30.72 -1.15,-53.76 -1.15,-69.12 0,-27.46 5.18,-41.09 15.74,-41.09 3.27,0 38.4,5.76 105.02,17.28 8.64,1.15 12.86,5.19 12.86,12.29 0,16.7 -1.34,41.47 -4.03,74.49 -2.68,33.03 -4.03,57.79 -4.03,74.3 0,10.95 5.19,16.32 15.36,16.32l135.74 0c6.33,0 9.6,2.31 9.6,6.72 0,4.42 -0.77,11.71 -2.11,21.7 -1.35,9.79 -1.92,17.28 -1.92,22.08 0,5.56 0.19,14.2 0.57,25.92 0.39,11.52 0.58,20.15 0.58,25.72 0,7.11 -5.19,10.75 -15.74,10.75 -15.17,0 -37.83,-0.96 -68.35,-2.88 -30.34,-1.92 -52.99,-2.88 -68.16,-2.88 -2.88,0 -5.18,10.76 -6.72,32.07 -0.77,26.68 -1.15,63.93 -1.15,112.12l0 83.9c0,32.26 3.07,54.72 9.02,67.39 8.83,19.58 27.26,29.37 55.29,29.37 11.52,0 28.42,-2.49 50.88,-7.48 22.27,-5 38.98,-7.49 49.73,-7.49 4.41,0 6.72,3.26 6.72,9.98zm709.96 -407.4c0,27.45 -1.15,68.73 -3.46,124.21 -2.3,55.3 -3.45,96.77 -3.45,124.61 0,27.26 0.77,68.35 2.49,122.87 1.73,54.53 2.5,95.61 2.5,122.88 0,7.48 -3.46,12.48 -10.56,14.59 -3.07,0.77 -41.28,1.15 -114.62,1.15 -4.42,0 -7.1,-14.02 -8.06,-42.24 -0.96,-28.03 -3.08,-42.24 -6.53,-42.24 -1.92,0 -4.61,1.73 -8.45,5.19 -62.59,54.33 -124.22,81.59 -185.27,81.59 -82.75,0 -137.47,-29.95 -163.96,-90.04 -16.51,-37.05 -24.77,-103.87 -24.77,-200.25 0,-86.97 6.91,-160.69 20.74,-221.17 3.26,-14.59 9.4,-21.89 18.43,-21.89 10.94,0 27.26,0.19 49.15,0.58 21.69,0.38 38.01,0.57 48.96,0.57 7.48,0 11.32,4.03 11.32,12.29 0,14.59 -2.49,38.97 -7.29,73.15 -5.19,36.48 -7.87,62.01 -8.26,76.99 -1.15,22.65 -1.73,47.42 -1.73,74.3 0,65.66 4.61,109.63 14.02,132.28 16.13,40.51 51.84,60.67 107.13,60.67 23.62,0 51.45,-11.71 83.71,-34.94 33.79,-24.39 51.26,-47.81 52.6,-70.27 1.92,-28.03 2.88,-127.1 2.88,-297.01 0,-18.24 7.68,-27.46 23.04,-27.46l93.12 0c10.94,0 16.32,6.53 16.32,19.59zm545.23 -18.05c0,41.28 -2.88,78.91 -8.45,112.7 -1.15,8.64 -4.99,12.86 -11.32,12.86 -7.88,0 -19.78,-0.77 -35.71,-2.49 -16.13,-1.73 -28.23,-2.5 -36.48,-2.5 -47.42,0 -77.76,13.25 -90.81,39.93 -7.88,16.13 -11.91,49.73 -11.91,100.61l0 62.01c0,20.93 0.77,52.8 2.31,95.61 1.53,42.62 2.3,74.5 2.3,95.61 0,9.99 -4.22,15.17 -12.86,15.17 -11.52,0 -28.99,-0.19 -52.42,-0.57 -23.42,-0.39 -41.08,-0.58 -52.6,-0.58 -8.45,0 -12.87,-4.61 -12.87,-14.02 0,-30.33 0.58,-76.22 1.54,-137.27 0.96,-61.05 1.34,-107.13 1.34,-137.85 0,-92.54 -8.44,-167.03 -25.34,-223.29 -0.77,-3.07 -1.15,-5.18 -1.15,-6.72 0,-4.6 2.49,-7.68 7.29,-9.6 13.64,-1.53 33.03,-3.83 57.99,-6.91 40.12,-7.68 58.75,-11.52 55.67,-11.52 5.95,0 9.99,11.14 11.71,33.41 1.92,22.46 5.38,33.6 10.18,33.6 0.77,0 1.73,-0.39 2.88,-1.15 15.36,-9.79 30.72,-19.59 46.27,-29.57 16.9,-10.18 34.17,-17.66 52.03,-22.65 14.59,-4.42 33.41,-6.72 56.45,-6.72 29.37,0 43.96,4.03 43.96,11.9zm718.22 19.2c0,1.53 -0.57,4.8 -1.72,10.17 -14.98,85.82 -22.47,159.74 -22.47,221.95 0,3.84 4.8,87.93 14.4,252.47l0.58 7.87c0.38,10.94 -4.61,16.32 -14.98,16.32 -10.36,0 -25.92,1.15 -46.84,3.64 -20.74,2.5 -36.29,3.65 -46.47,3.65 -7.1,0 -12.47,-13.05 -16.31,-39.16 -3.84,-26.12 -7.3,-39.17 -10.76,-39.17 -2.3,0 -12.28,7.29 -30.33,21.89 -22.08,17.85 -42.81,31.48 -61.82,40.89 -29.76,14.98 -59.33,22.46 -88.89,22.46 -72.77,0 -134.21,-28.99 -184.12,-87.16 -47.23,-55.49 -70.85,-120.19 -70.85,-194.1 0,-83.14 23.81,-152.06 71.42,-206.4 49.92,-56.63 115.58,-84.86 196.99,-84.86 57.4,0 107.51,19.97 150.13,59.71 6.34,7.49 16.32,18.43 29.95,32.64 0.96,1.15 2.12,1.73 3.27,1.73 2.3,0 5.57,-11.71 9.6,-35.52 4.22,-23.61 9.4,-35.52 15.93,-35.52 10.18,0 29.18,2.88 57.02,8.45 30.91,6.72 46.27,12.86 46.27,18.05zm-143.99 235.19c0,-46.08 -13.63,-85.44 -41.09,-118.46 -28.79,-35.52 -65.66,-53.37 -110.78,-53.37 -44.92,0 -82.36,17.66 -112.5,52.79 -28.8,33.79 -43.2,73.34 -43.2,119.04 0,45.31 14.4,84.67 43.2,118.07 30.14,34.75 67.58,52.22 112.5,52.22 43.97,0 80.64,-17.85 110.21,-53.37 27.84,-33.41 41.66,-72.19 41.66,-116.92zm485.72 -506.09l-0.58 7.29c-8.06,139.39 -12.09,259.19 -12.09,359.41 0,44.54 0.76,111.36 2.3,200.44 1.54,89.09 2.11,155.71 2.11,200.06 0,8.64 -2.88,12.86 -8.83,12.86l-107.52 0c-6.71,0 -10.17,-4.22 -10.17,-12.86 0,-44.35 0.38,-110.97 1.15,-200.06 0.77,-89.08 1.15,-155.9 1.15,-200.44 0,-40.51 -1.92,-101.37 -5.76,-182.58 -3.84,-81.21 -5.76,-141.69 -5.76,-181.82 0,-7.49 3.84,-11.33 11.72,-11.33 6.71,0 16.89,0.58 30.33,1.73 13.44,1.15 23.42,1.73 30.33,1.73 6.92,0 17.48,-0.58 31.3,-1.73 13.82,-1.15 24,-1.73 30.72,-1.73 6.72,0 9.98,3.08 9.6,9.03zm696.52 477.87c0,27.64 -11.9,46.27 -35.9,55.67 -16.32,5.95 -132.47,17.09 -348.85,33.41 4.8,33.02 23.04,61.05 54.72,84.28 30.14,22.08 62.4,33.22 96.95,33.22 59.52,0 114.05,-19.01 163.58,-56.83 6.15,-4.99 12.1,-9.79 18.05,-14.59 3.07,0 4.99,0.38 5.95,1.15 0.96,0.77 8.06,13.63 21.12,38.78 13.25,25.34 19.78,38.78 19.78,40.7 0,2.31 -3.08,6.53 -9.03,12.87 -55.1,58.17 -125.75,87.35 -212.15,87.35 -86.97,0 -156.28,-25.92 -208.12,-77.95 -51.64,-51.83 -77.56,-121.14 -77.56,-207.73 0,-77.37 24.76,-144.57 74.11,-201.98 52.22,-59.7 115.96,-89.46 191.8,-89.46 70.46,0 129.21,25.92 176.44,77.56 46.07,50.3 69.11,111.55 69.11,183.55zm-133.62 -34.18c0,-31.1 -12.29,-58.75 -36.87,-82.75 -24.57,-24 -52.22,-35.9 -83.13,-35.9 -34.56,0 -65.08,13.82 -91.96,41.47 -26.88,27.65 -40.32,58.75 -40.32,93.12 0,7.87 6.72,11.71 20.16,11.71 55.68,0 122.11,-5.57 199.48,-16.51 21.69,-3.08 32.64,-6.72 32.64,-11.14zm738.95 229.62c0,1.92 -2.88,15.17 -8.44,39.94 -6.15,26.49 -9.41,43 -10.18,49.34 -1.54,13.25 -4.99,19.77 -10.18,19.77 -13.05,0 -30.71,-0.76 -52.79,-2.3 -25.15,-1.92 -42.63,-3.07 -52.42,-3.46 -25.15,-0.57 -61.05,-0.96 -107.9,-0.96 -36.47,0 -76.6,1.35 -120.95,4.42 -55.49,3.65 -79.29,5.57 -71.42,5.57 -7.87,0 -12.87,-3.27 -15.17,-10.18 -5.18,-18.05 -7.87,-38.97 -7.87,-63.16 0,-3.27 0.19,-8.07 0.58,-14.21 0.38,-6.34 0.57,-10.94 0.57,-13.82 0,-5.38 4.03,-11.72 12.1,-19.01 8.06,-7.3 47.8,-49.92 119.61,-127.87 36.09,-38.01 87.55,-96.38 154.36,-175.48l-247.09 0c-5.96,0 -9.03,-3.84 -9.03,-11.71 0,-10.75 2.31,-26.69 6.91,-48 4.61,-21.5 6.92,-37.24 6.92,-47.61 0,-4.42 5.18,-6.72 15.74,-6.72 20.93,0 52.41,0.77 94.07,2.49 41.47,1.54 72.96,2.5 93.89,2.5 102.71,0 160.7,0.58 173.94,1.92 9.41,1.15 14.02,4.99 14.02,11.71 0,56.45 -2.31,88.32 -6.91,95.42 -3.84,5.19 -36.29,42.24 -97.34,111.17 -39.36,44.73 -98.88,111.35 -178.75,199.86 125.18,-3.07 222.14,-4.61 290.87,-4.61 8.64,0 12.86,1.73 12.86,4.99zm723.79 -402.41c0,1.53 -0.57,4.8 -1.72,10.17 -14.98,85.82 -22.47,159.74 -22.47,221.95 0,3.84 4.8,87.93 14.4,252.47l0.58 7.87c0.38,10.94 -4.61,16.32 -14.98,16.32 -10.36,0 -25.92,1.15 -46.84,3.64 -20.74,2.5 -36.29,3.65 -46.47,3.65 -7.1,0 -12.47,-13.05 -16.31,-39.16 -3.84,-26.12 -7.3,-39.17 -10.76,-39.17 -2.3,0 -12.28,7.29 -30.33,21.89 -22.08,17.85 -42.81,31.48 -61.82,40.89 -29.76,14.98 -59.33,22.46 -88.89,22.46 -72.77,0 -134.21,-28.99 -184.12,-87.16 -47.23,-55.49 -70.85,-120.19 -70.85,-194.1 0,-83.14 23.81,-152.06 71.42,-206.4 49.92,-56.63 115.58,-84.86 196.99,-84.86 57.4,0 107.51,19.97 150.13,59.71 6.34,7.49 16.32,18.43 29.95,32.64 0.96,1.15 2.12,1.73 3.27,1.73 2.3,0 5.57,-11.71 9.6,-35.52 4.22,-23.61 9.4,-35.52 15.93,-35.52 10.18,0 29.18,2.88 57.02,8.45 30.91,6.72 46.27,12.86 46.27,18.05zm-143.99 235.19c0,-46.08 -13.63,-85.44 -41.09,-118.46 -28.79,-35.52 -65.66,-53.37 -110.78,-53.37 -44.92,0 -82.36,17.66 -112.5,52.79 -28.8,33.79 -43.2,73.34 -43.2,119.04 0,45.31 14.4,84.67 43.2,118.07 30.14,34.75 67.58,52.22 112.5,52.22 43.97,0 80.64,-17.85 110.21,-53.37 27.84,-33.41 41.66,-72.19 41.66,-116.92z"/>
    <path class="fil3" d="M411.8 4584.98c0,79.15 -31.55,142.53 -94.93,190.4 -57.66,43.52 -127.57,65.28 -210.26,65.28 -31.82,0 -50.04,-0.81 -54.4,-2.45 -8.97,-4.08 -13.6,-17.13 -13.6,-38.89 0,-11.7 -1.36,-29.11 -4.35,-52.5 -2.99,-23.39 -4.35,-40.53 -4.35,-51.68 0,-6.8 4.9,-11.42 14.42,-13.6 6.8,-1.63 16.59,-1.63 29.37,0 16.59,1.63 24.48,2.45 23.94,2.45 100.64,0 150.96,-31.01 150.96,-92.76 0,-29.1 -22.03,-55.76 -65.82,-80.24 -71.27,-39.44 -112.34,-63.38 -122.95,-72.62 -43.79,-37.54 -65.83,-87.04 -65.83,-147.97 0,-79.7 30.2,-141.72 90.31,-186.33 54.4,-39.98 122.95,-59.84 206.18,-59.84 7.34,0 12.78,3.54 16.32,10.34 3.54,7.07 10.06,28.56 20.13,64.73 9.79,36.18 14.69,57.94 14.69,65.56 0,5.71 -5.17,9.52 -15.24,11.15 -34,4.62 -68.27,9.25 -102.81,13.33 -41.08,11.15 -61.48,33.46 -61.48,66.64 0,23.94 21.49,48.14 64.2,72.63 63.37,35.36 103.63,61.2 120.5,77.24 43.24,41.35 65,94.39 65,159.13zm1010.41 -475.47c0,2.18 -0.82,6.8 -2.45,14.42 -21.22,121.59 -31.83,226.31 -31.83,314.44 0,5.44 6.8,124.58 20.4,357.68l0.82 11.16c0.54,15.5 -6.53,23.12 -21.22,23.12 -14.69,0 -36.72,1.63 -66.37,5.16 -29.37,3.54 -51.41,5.17 -65.82,5.17 -10.07,0 -17.68,-18.49 -23.12,-55.49 -5.44,-36.99 -10.34,-55.49 -15.23,-55.49 -3.27,0 -17.41,10.34 -42.98,31.01 -31.28,25.3 -60.66,44.61 -87.59,57.94 -42.16,21.22 -84.05,31.82 -125.93,31.82 -103.09,0 -190.14,-41.07 -260.86,-123.49 -66.91,-78.61 -100.37,-170.27 -100.37,-274.99 0,-117.78 33.73,-215.43 101.19,-292.41 70.72,-80.24 163.75,-120.22 279.08,-120.22 81.33,0 152.32,28.28 212.7,84.59 8.98,10.61 23.12,26.11 42.44,46.24 1.36,1.63 2.99,2.45 4.62,2.45 3.26,0 7.89,-16.59 13.6,-50.32 5.98,-33.46 13.33,-50.32 22.58,-50.32 14.41,0 41.34,4.08 80.78,11.96 43.8,9.52 65.56,18.23 65.56,25.57zm-204.01 333.21c0,-65.28 -19.31,-121.04 -58.21,-167.83 -40.8,-50.32 -93.02,-75.62 -156.94,-75.62 -63.65,0 -116.69,25.03 -159.4,74.81 -40.8,47.87 -61.2,103.9 -61.2,168.64 0,64.19 20.4,119.95 61.2,167.28 42.71,49.23 95.75,73.99 159.4,73.99 62.29,0 114.24,-25.3 156.13,-75.62 39.44,-47.33 59.02,-102.27 59.02,-165.65zm1154.57 -354.97c0,63.92 -0.54,159.67 -1.63,287.51 -1.09,127.84 -1.63,223.59 -1.63,287.24 0,126.48 -27.2,219.78 -81.33,279.89 -56.85,63.92 -147.7,95.75 -272.82,95.75 -120.5,0 -218.15,-22.85 -292.41,-68.28 -11.69,-7.34 -17.68,-13.87 -17.68,-19.04 0,5.72 7.89,-33.45 23.94,-117.77 1.63,-8.98 5.44,-13.6 11.15,-13.6 2.72,0 6.26,1.36 10.34,4.08 79.97,45.15 159.94,67.73 240.18,67.73 52.77,0 96.56,-11.7 131.11,-35.09 39.71,-26.39 59.84,-65.01 59.84,-115.33 0,-11.16 -1.09,-36.18 -3.27,-74.81 -59.02,71.81 -133.82,107.72 -224.95,107.72 -98.19,0 -178.97,-35.36 -242.35,-106.08 -60.66,-68 -90.85,-151.78 -90.85,-251.06 0,-100.92 29.38,-186.87 87.86,-257.59 62.29,-75.35 143.07,-113.16 242.62,-113.16 87.86,0 157.77,33.73 209.45,100.92 8.43,11.15 14.41,16.59 18.22,16.59 4.35,0 6.26,-4.9 6.26,-14.42 0,-6.8 -0.55,-17.95 -1.63,-32.91 -0.82,-15.23 -1.36,-26.38 -1.36,-33.73 0,-31.82 2.99,-47.87 9.52,-47.87 5.17,0 33.73,4.9 85.41,14.69 51.95,9.79 80.24,15.77 84.86,17.95 7.35,2.72 11.15,9.52 11.15,20.67zm-190.94 328.86c0,-59.3 -16.32,-109.89 -48.69,-151.24 -35.63,-45.15 -82.42,-67.73 -140.08,-67.73 -57.4,0 -103.91,22.85 -139.54,68.55 -32.37,41.34 -48.69,91.66 -48.69,150.42 0,57.93 16.59,107.98 49.5,149.87 35.64,45.7 81.88,68.55 138.73,68.55 56.3,0 102.54,-22.85 138.45,-68.55 33.45,-41.89 50.32,-91.94 50.32,-149.87zm912.75 -334.3c0,58.48 -4.08,111.8 -11.97,159.67 -1.63,12.24 -7.07,18.22 -16.05,18.22 -11.15,0 -28.02,-1.08 -50.59,-3.53 -22.85,-2.45 -39.99,-3.54 -51.68,-3.54 -67.18,0 -110.15,18.77 -128.65,56.58 -11.15,22.85 -16.87,70.45 -16.87,142.53l0 87.86c0,29.65 1.09,74.8 3.27,135.46 2.17,60.38 3.26,105.53 3.26,135.45 0,14.15 -5.98,21.49 -18.22,21.49 -16.32,0 -41.07,-0.27 -74.26,-0.81 -33.18,-0.55 -58.21,-0.82 -74.53,-0.82 -11.97,0 -18.22,-6.53 -18.22,-19.86 0,-42.97 0.81,-107.98 2.17,-194.48 1.36,-86.5 1.91,-151.78 1.91,-195.3 0,-131.11 -11.97,-236.64 -35.91,-316.34 -1.09,-4.35 -1.63,-7.35 -1.63,-9.52 0,-6.53 3.54,-10.88 10.34,-13.6 19.31,-2.18 46.78,-5.44 82.14,-9.79 56.85,-10.88 83.24,-16.32 78.88,-16.32 8.44,0 14.15,15.77 16.6,47.32 2.72,31.83 7.61,47.61 14.41,47.61 1.09,0 2.45,-0.55 4.08,-1.64 21.76,-13.87 43.52,-27.74 65.56,-41.89 23.93,-14.41 48.4,-25.02 73.7,-32.09 20.67,-6.26 47.33,-9.52 79.97,-9.52 41.62,0 62.29,5.71 62.29,16.86zm982.94 27.2c0,2.18 -0.82,6.8 -2.45,14.42 -21.22,121.59 -31.83,226.31 -31.83,314.44 0,5.44 6.8,124.58 20.4,357.68l0.82 11.16c0.54,15.5 -6.53,23.12 -21.22,23.12 -14.69,0 -36.72,1.63 -66.37,5.16 -29.37,3.54 -51.41,5.17 -65.82,5.17 -10.07,0 -17.68,-18.49 -23.12,-55.49 -5.44,-36.99 -10.34,-55.49 -15.23,-55.49 -3.27,0 -17.41,10.34 -42.98,31.01 -31.28,25.3 -60.66,44.61 -87.59,57.94 -42.16,21.22 -84.05,31.82 -125.93,31.82 -103.09,0 -190.14,-41.07 -260.86,-123.49 -66.91,-78.61 -100.37,-170.27 -100.37,-274.99 0,-117.78 33.73,-215.43 101.19,-292.41 70.72,-80.24 163.75,-120.22 279.08,-120.22 81.33,0 152.32,28.28 212.7,84.59 8.98,10.61 23.12,26.11 42.44,46.24 1.36,1.63 2.99,2.45 4.62,2.45 3.26,0 7.89,-16.59 13.6,-50.32 5.98,-33.46 13.33,-50.32 22.58,-50.32 14.41,0 41.34,4.08 80.78,11.96 43.8,9.52 65.56,18.23 65.56,25.57zm-204.01 333.21c0,-65.28 -19.31,-121.04 -58.21,-167.83 -40.8,-50.32 -93.02,-75.62 -156.94,-75.62 -63.65,0 -116.69,25.03 -159.4,74.81 -40.8,47.87 -61.2,103.9 -61.2,168.64 0,64.19 20.4,119.95 61.2,167.28 42.71,49.23 95.75,73.99 159.4,73.99 62.29,0 114.24,-25.3 156.13,-75.62 39.44,-47.33 59.02,-102.27 59.02,-165.65zm1218.22 -722.99c0,68.54 -2.99,171.36 -8.97,307.91 -5.99,136.82 -8.98,239.09 -8.98,307.09 0,209.72 4.63,368.57 13.87,476.28l0.82 10.34c0.54,5.44 -6.8,8.7 -21.49,10.34 -10.34,1.08 -24.75,1.08 -43.25,0 -22.57,-1.64 -32.91,-2.45 -31.28,-2.45 -7.89,0 -19.85,0.81 -35.36,2.45 -15.23,1.63 -27.2,2.44 -35.09,2.44 -7.61,0 -11.97,-18.76 -13.33,-56.03 -1.36,-37.26 -3.53,-56.03 -6.25,-56.58 -3.27,1.64 -7.07,5.17 -11.97,10.34 -72.63,79.15 -156.4,118.59 -250.79,118.59 -107.17,0 -195.3,-40.8 -264.39,-122.67 -65.28,-76.98 -97.92,-170 -97.92,-278.81 0,-113.15 32.91,-208.35 98.74,-285.33 69.09,-80.78 159.12,-121.04 270.37,-121.04 66.91,0 125.4,19.58 175.17,59.02 22.85,19.86 45.7,39.72 68,60.12 4.08,-1.63 6.26,-5.44 6.26,-11.15l0 -258.41c0,-17.41 -0.82,-44.06 -2.45,-79.7 -1.63,-35.63 -2.45,-62.29 -2.45,-80.51 0,-12.78 4.36,-19.04 12.79,-19.04 19.58,0 48.96,-1.63 87.58,-4.9 38.9,-3.26 67.73,-4.89 86.77,-4.89 8.98,0 13.6,5.44 13.6,16.59zm-199.1 724.62c0,-63.65 -19.59,-119.68 -59.03,-167.83 -41.89,-51.41 -93.84,-77.25 -156.13,-77.25 -65.28,0 -119.14,25.57 -161.57,76.44 -40.53,47.87 -60.66,104.99 -60.66,171.9 0,63.65 20.95,119.14 62.84,166.47 43.24,49.78 96.28,74.8 159.39,74.8 63.92,0 116.42,-25.29 157.76,-75.61 38.36,-47.33 57.4,-103.64 57.4,-168.92zm1236.17 -334.84c0,2.18 -0.82,6.8 -2.45,14.42 -21.22,121.59 -31.83,226.31 -31.83,314.44 0,5.44 6.8,124.58 20.4,357.68l0.82 11.16c0.54,15.5 -6.53,23.12 -21.22,23.12 -14.69,0 -36.72,1.63 -66.37,5.16 -29.37,3.54 -51.41,5.17 -65.82,5.17 -10.07,0 -17.68,-18.49 -23.12,-55.49 -5.44,-36.99 -10.34,-55.49 -15.23,-55.49 -3.27,0 -17.41,10.34 -42.98,31.01 -31.28,25.3 -60.66,44.61 -87.59,57.94 -42.16,21.22 -84.05,31.82 -125.93,31.82 -103.09,0 -190.14,-41.07 -260.86,-123.49 -66.91,-78.61 -100.37,-170.27 -100.37,-274.99 0,-117.78 33.73,-215.43 101.19,-292.41 70.72,-80.24 163.75,-120.22 279.08,-120.22 81.33,0 152.32,28.28 212.7,84.59 8.98,10.61 23.12,26.11 42.44,46.24 1.36,1.63 2.99,2.45 4.62,2.45 3.26,0 7.89,-16.59 13.6,-50.32 5.98,-33.46 13.33,-50.32 22.58,-50.32 14.41,0 41.34,4.08 80.78,11.96 43.8,9.52 65.56,18.23 65.56,25.57zm-204.01 333.21c0,-65.28 -19.31,-121.04 -58.21,-167.83 -40.8,-50.32 -93.02,-75.62 -156.94,-75.62 -63.65,0 -116.69,25.03 -159.4,74.81 -40.8,47.87 -61.2,103.9 -61.2,168.64 0,64.19 20.4,119.95 61.2,167.28 42.71,49.23 95.75,73.99 159.4,73.99 62.29,0 114.24,-25.3 156.13,-75.62 39.44,-47.33 59.02,-102.27 59.02,-165.65z"/>
   </g>
  </g>
 </g>
</svg>
