<?xml version="1.0" encoding="UTF-8"?>
<!DOCTYPE svg PUBLIC "-//W3C//DTD SVG 1.1//EN" "http://www.w3.org/Graphics/SVG/1.1/DTD/svg11.dtd">
<!-- Creator: CorelDRAW -->
<svg xmlns="http://www.w3.org/2000/svg" xml:space="preserve" width="200mm" height="34.342mm" version="1.1" style="shape-rendering:geometricPrecision; text-rendering:geometricPrecision; image-rendering:optimizeQuality; fill-rule:evenodd; clip-rule:evenodd"
viewBox="0 0 20000 3434.2"
 xmlns:xlink="http://www.w3.org/1999/xlink"
 xmlns:xodm="http://www.corel.com/coreldraw/odm/2003">
 <defs>
  <style type="text/css">
   <![CDATA[
    .fil1 {fill:#00A859}
    .fil2 {fill:#1BB18E}
    .fil3 {fill:#B0D831}
    .fil0 {fill:black;fill-rule:nonzero}
   ]]>
  </style>
 </defs>
 <g id="Capa_x0020_1">
  <metadata id="CorelCorpID_0Corel-Layer"/>
  <g id="_1731014868368">
   <path class="fil0" d="M4279.43 976.99l321.38 0 703.34 947.6 0 -287.95c0,-185.02 -14.24,-331.97 -42.37,-440.54 -28.13,-108.56 -72.81,-166.48 -134.38,-173.43l0 -45.68 423 0 0 45.68c-117.83,11.58 -176.75,206.2 -176.75,583.85l0 655.34 -45.34 0 -836.39 -1130.63 0 361.1c0,228.38 13.9,396.85 41.7,505.08 27.48,108.56 72.49,166.81 135.04,175.08l0 45.68 -419.02 0 0 -45.68c117.83,-18.53 176.75,-241.61 176.75,-669.24l0 -335.61c0,-57.59 -11.26,-95.98 -33.76,-114.85 -22.51,-18.87 -60.24,-28.8 -113.2,-30.12l0 -45.68z"/>
   <path id="_1" class="fil0" d="M5711.58 1449.63c148.94,-97.97 289.28,-146.95 420.68,-146.95 61.56,0 105.91,13.57 133.38,40.71 27.14,27.14 40.38,73.15 39.72,137.69l0 606.02c0,29.13 13.24,43.69 39.39,43.69 25.48,0 70.83,-29.79 135.37,-89.36l0 59.57c-98.3,96.65 -178.4,144.97 -240.29,144.97 -55.61,0 -83.41,-30.78 -83.41,-92.67l0 -142.99c-80.76,82.42 -148.94,142.33 -204.88,179.73 -55.6,37.4 -108.56,55.93 -158.21,55.93 -48.32,0 -89.69,-18.86 -123.78,-56.6 -34.09,-37.73 -51.31,-83.73 -51.31,-138.01 0,-140.01 179.4,-290.94 538.18,-452.78l0 -116.84c0,-35.75 -10.59,-65.2 -31.78,-88.37 -21.51,-23.5 -50.64,-35.09 -88.37,-35.09 -63.55,0 -120.47,30.79 -170.12,92.68 -49.65,61.89 -79.44,139.01 -89.03,231.02l-65.54 0 0 -232.35zm454.77 228.38c-119.16,24.49 -215.8,66.53 -289.94,126.1 -74.14,59.58 -111.21,120.81 -111.21,183.37 0,39.71 12.25,71.82 37.07,95.65 24.82,23.83 57.26,35.75 97.31,35.75 74.14,0 136.69,-39.06 187.99,-117.5 51.31,-78.11 77.45,-186.01 78.78,-323.37z"/>
   <path id="_2" class="fil0" d="M6876.96 1024.66l0 49.64c-41.04,9.6 -61.56,55.61 -61.56,137.69 0,55.61 4.64,94.33 14.23,116.17 9.27,22.18 26.15,40.38 49.65,54.62 23.83,14.23 55.61,21.18 95.32,21.18l81.09 0 0 43.69 -238.3 0 0 623.9c0,20.19 3.97,35.41 12.24,45.67 7.95,10.26 20.19,15.56 36.08,15.56 31.78,0 79.11,-25.49 141.66,-76.79 7.28,-5.96 12.58,-9.93 16.55,-12.58l0 55.61c-110.22,97.97 -198.26,146.95 -263.79,146.95 -30.78,0 -53.62,-11.91 -68.84,-35.41 -15.23,-23.5 -22.84,-58.59 -22.84,-105.25l0 -657.66 -146.96 0 0 -43.69c56.93,0 97.31,-11.25 121.14,-33.76 23.83,-22.51 35.75,-61.89 35.75,-118.49l0 -145.63 198.58 -81.42z"/>
   <path id="_3" class="fil0" d="M7100.37 1368.21l335.62 -61.56 0 37.73c-26.48,7.62 -39.72,30.12 -39.72,66.86l0 598.74c0,39.39 8.6,70.17 26.15,93.01 17.21,22.51 40.38,33.76 69.5,33.76 74.14,0 147.62,-55.61 221.1,-166.82 73.47,-111.2 110.21,-241.94 110.21,-392.21 0,-57.92 -7.61,-100.95 -22.5,-129.08 -14.9,-28.46 -41.71,-42.36 -79.77,-42.36 -12.25,0 -30.45,2.31 -54.61,7.61l0 -45.68 337.6 -61.56 0 37.73c-27.8,4.64 -41.71,26.81 -41.71,66.86l0 624.23c0,60.57 22.18,90.69 66.86,90.69 26.48,0 60.57,-9.6 101.94,-29.13l0 45.68 -269.74 107.23 -48 0 0 -322.37c-101.61,138.02 -182.04,225.73 -241.28,262.8 -59.25,37.07 -113.86,55.6 -164.5,55.6 -106.9,0 -160.19,-75.46 -160.19,-226.06l0 -527.91c0,-55.94 -30.45,-84.07 -91.68,-84.07 -13.24,0 -31.45,1.99 -55.28,5.96l0 -45.68z"/>
   <path id="_4" class="fil0" d="M8218.76 1407.93l255.18 -103.26 42.7 0 0 313.76c66.53,-113.19 125.77,-193.62 178.07,-240.95 52.29,-47.33 105.58,-70.83 160.52,-70.83 21.18,0 46.67,4.97 76.46,14.56l0 297.22 -69.51 0c-0.66,-116.5 -34.42,-174.75 -101.28,-174.75 -65.86,0 -125.11,54.28 -176.74,163.17 -51.63,108.89 -77.45,232.35 -77.45,370.04 0,81.09 14.89,134.37 45.01,158.87 29.79,24.49 87.05,36.73 171.45,36.73l0 45.68 -504.41 0 0 -45.68c52.95,-1.32 91.02,-12.9 114.19,-34.75 23.16,-21.84 34.75,-61.23 34.75,-118.16l0 -500.44c0,-57.92 -20.85,-87.05 -62.89,-87.05 -17.54,0 -46,7.28 -86.05,21.52l0 -45.68z"/>
   <path id="_5" class="fil0" d="M9104.46 1449.63c148.94,-97.97 289.28,-146.95 420.68,-146.95 61.56,0 105.91,13.57 133.38,40.71 27.14,27.14 40.38,73.15 39.72,137.69l0 606.02c0,29.13 13.24,43.69 39.39,43.69 25.48,0 70.83,-29.79 135.37,-89.36l0 59.57c-98.3,96.65 -178.4,144.97 -240.29,144.97 -55.61,0 -83.41,-30.78 -83.41,-92.67l0 -142.99c-80.76,82.42 -148.94,142.33 -204.88,179.73 -55.6,37.4 -108.56,55.93 -158.21,55.93 -48.32,0 -89.69,-18.86 -123.78,-56.6 -34.09,-37.73 -51.31,-83.73 -51.31,-138.01 0,-140.01 179.4,-290.94 538.18,-452.78l0 -116.84c0,-35.75 -10.59,-65.2 -31.78,-88.37 -21.51,-23.5 -50.64,-35.09 -88.37,-35.09 -63.55,0 -120.47,30.79 -170.12,92.68 -49.65,61.89 -79.44,139.01 -89.03,231.02l-65.54 0 0 -232.35zm454.77 228.38c-119.16,24.49 -215.8,66.53 -289.94,126.1 -74.14,59.58 -111.21,120.81 -111.21,183.37 0,39.71 12.25,71.82 37.07,95.65 24.82,23.83 57.26,35.75 97.31,35.75 74.14,0 136.69,-39.06 187.99,-117.5 51.31,-78.11 77.45,-186.01 78.78,-323.37z"/>
   <path id="_6" class="fil0" d="M10281.76 885.64c-26.48,13.57 -39.72,37.07 -39.72,70.83l0 1063.11c0,57.59 11.59,96.98 35.09,118.49 23.5,21.85 60.57,33.1 111.87,34.42l0 45.68 -444.84 0 0 -45.68c52.96,-1.32 91.02,-12.9 114.19,-35.41 23.17,-22.18 34.75,-61.23 34.75,-117.5l0 -923.1c0,-59.58 -24.49,-89.37 -73.48,-89.37 -20.52,0 -45.67,5.3 -75.46,15.56l0 -45.68 337.6 -131.06 0 39.71z"/>
   <path id="_7" class="fil0" d="M11252.85 1973.91c-143.97,181.37 -284.31,272.06 -421.34,272.06 -96.31,0 -181.04,-41.7 -254.52,-125.44 -73.81,-83.41 -110.55,-182.37 -110.55,-297.22 0,-132.39 43.69,-251.54 131.07,-357.46 87.38,-106.24 190.65,-159.2 309.14,-159.2 95.65,0 171.11,33.43 227.38,100.62 56.27,66.86 85.72,148.61 89.03,244.92l-623.56 0c-1.33,25.16 -1.99,43.69 -1.99,55.61 0,114.85 30.45,210.83 91.02,287.62 60.57,77.12 135.37,115.51 224.41,115.51 111.2,0 224.4,-66.86 339.91,-200.57l0 63.55zm-188.66 -367.39c-7.61,-75.46 -31.77,-134.05 -72.48,-175.75 -40.71,-41.7 -88.7,-62.56 -143.98,-62.56 -57.92,0 -109.88,22.51 -155.56,67.85 -45.67,45.02 -73.81,101.95 -84.07,170.46l456.09 0z"/>
   <path id="_8" class="fil0" d="M11388.55 1286.79l45.67 0 0 7.61c0,24.17 16.88,36.08 50.64,36.08l586.83 0 0 47.33 -567.96 794.68 207.52 0c205.87,0 312.45,-82.74 318.74,-248.23l65.53 0 0 337.6 -45.67 0c-1.33,-17.87 -7.28,-29.46 -17.55,-35.08 -10.26,-5.63 -31.11,-8.61 -61.89,-8.61l-643.42 0 0 -46.67 568.62 -795.34 -183.69 0c-164.83,0 -251.22,72.81 -259.82,218.44l-63.55 0 0 -307.81z"/>
   <path id="_9" class="fil0" d="M12305.69 1449.63c148.94,-97.97 289.28,-146.95 420.68,-146.95 61.56,0 105.91,13.57 133.38,40.71 27.14,27.14 40.38,73.15 39.72,137.69l0 606.02c0,29.13 13.24,43.69 39.39,43.69 25.48,0 70.83,-29.79 135.37,-89.36l0 59.57c-98.3,96.65 -178.4,144.97 -240.29,144.97 -55.61,0 -83.41,-30.78 -83.41,-92.67l0 -142.99c-80.76,82.42 -148.94,142.33 -204.88,179.73 -55.6,37.4 -108.56,55.93 -158.21,55.93 -48.32,0 -89.69,-18.86 -123.78,-56.6 -34.09,-37.73 -51.31,-83.73 -51.31,-138.01 0,-140.01 179.4,-290.94 538.18,-452.78l0 -116.84c0,-35.75 -10.59,-65.2 -31.78,-88.37 -21.51,-23.5 -50.64,-35.09 -88.37,-35.09 -63.55,0 -120.47,30.79 -170.12,92.68 -49.65,61.89 -79.44,139.01 -89.03,231.02l-65.54 0 0 -232.35zm454.77 228.38c-119.16,24.49 -215.8,66.53 -289.94,126.1 -74.14,59.58 -111.21,120.81 -111.21,183.37 0,39.71 12.25,71.82 37.07,95.65 24.82,23.83 57.26,35.75 97.31,35.75 74.14,0 136.69,-39.06 187.99,-117.5 51.31,-78.11 77.45,-186.01 78.78,-323.37z"/>
   <path id="_10" class="fil0" d="M13798.08 1491.01c-30.12,-28.47 -52.62,-58.59 -67.85,-91.02 -15.22,-32.44 -22.84,-66.2 -22.84,-101.94 0,-93.01 42.7,-174.43 128.42,-244.27 85.4,-69.83 185.68,-104.59 300.53,-104.59 57.6,0 134.38,16.55 230.37,49.65l0 303.84 -71.49 0c-5.3,-84.73 -31.12,-153.91 -77.79,-207.53 -46.33,-53.61 -103.59,-80.42 -170.78,-80.42 -54.94,0 -100.62,16.88 -136.36,50.64 -36.08,33.76 -53.95,76.45 -53.95,128.09 0,49.64 17.87,95.98 53.95,139.34 35.41,43.03 120.14,109.55 254.19,199.91 101.61,68.18 170.12,123.12 205.54,165.49 34.75,42.7 52.29,94.99 52.29,157.22 0,101.61 -46.67,192.3 -140.33,271.4 -93.67,79.43 -199.92,119.15 -318.41,119.15 -85.06,0 -180.38,-19.86 -285.96,-59.57l0 -351.5 69.5 0c0,98.3 28.47,180.38 85.73,246.58 56.92,65.86 124.78,98.96 203.22,98.96 71.82,0 128.75,-20.85 170.45,-62.89 42.04,-42.03 62.89,-95.32 62.89,-160.19 0,-56.27 -17.21,-105.58 -51.63,-148.28 -34.43,-42.04 -112.54,-103.27 -234.67,-184.03 -66.86,-44.02 -128.75,-88.7 -185.02,-134.04z"/>
   <path id="_11" class="fil0" d="M14622.55 1449.63c148.94,-97.97 289.28,-146.95 420.68,-146.95 61.56,0 105.91,13.57 133.38,40.71 27.14,27.14 40.38,73.15 39.72,137.69l0 606.02c0,29.13 13.24,43.69 39.39,43.69 25.48,0 70.83,-29.79 135.37,-89.36l0 59.57c-98.3,96.65 -178.4,144.97 -240.29,144.97 -55.61,0 -83.41,-30.78 -83.41,-92.67l0 -142.99c-80.76,82.42 -148.94,142.33 -204.88,179.73 -55.6,37.4 -108.56,55.93 -158.21,55.93 -48.32,0 -89.69,-18.86 -123.78,-56.6 -34.09,-37.73 -51.31,-83.73 -51.31,-138.01 0,-140.01 179.4,-290.94 538.18,-452.78l0 -116.84c0,-35.75 -10.59,-65.2 -31.78,-88.37 -21.51,-23.5 -50.64,-35.09 -88.37,-35.09 -63.55,0 -120.47,30.79 -170.12,92.68 -49.65,61.89 -79.44,139.01 -89.03,231.02l-65.54 0 0 -232.35zm454.77 228.38c-119.16,24.49 -215.8,66.53 -289.94,126.1 -74.14,59.58 -111.21,120.81 -111.21,183.37 0,39.71 12.25,71.82 37.07,95.65 24.82,23.83 57.26,35.75 97.31,35.75 74.14,0 136.69,-39.06 187.99,-117.5 51.31,-78.11 77.45,-186.01 78.78,-323.37z"/>
   <path id="_12" class="fil0" d="M15806.14 1869.98c-7.61,1.32 -19.2,2.98 -34.75,4.96 -46.34,7.62 -81.09,11.59 -104.26,11.59 -78.44,0 -143.65,-21.52 -195.94,-64.21 -51.96,-43.03 -78.11,-98.63 -78.11,-167.15 0,-89.03 44.02,-169.46 132.39,-240.95 88.04,-71.82 185.68,-107.57 292.92,-107.57 27.8,0 51.3,2.65 70.83,7.61 19.19,5.3 55.6,18.54 108.56,39.72 56.27,23.17 96.65,37.73 121.14,44.35 24.49,6.29 53.62,9.6 87.05,9.6l68.84 0 0 45.68 -197.93 0c15.56,33.43 23.17,64.21 23.17,92.01 0,38.72 -10.26,78.44 -31.11,119.15 -20.52,40.71 -70.5,94.99 -149.27,162.84 -77.12,66.53 -115.51,113.2 -115.51,140.34 0,21.51 13.9,40.38 41.7,57.26 27.14,17.54 75.13,37.4 144.31,60.24 99.29,33.1 172.44,65.53 218.77,97.97 46.67,32.43 69.84,75.46 69.84,129.08 0,97.31 -61.89,179.72 -186.01,248.23 -124.12,68.19 -263.79,102.28 -419.68,102.28 -114.85,0 -210.51,-20.19 -286.96,-60.57 -76.13,-40.38 -114.19,-93.67 -114.19,-159.53 0,-65.21 43.03,-123.46 128.75,-175.09 85.73,-51.3 201.24,-91.02 346.87,-119.49 -23.17,-17.21 -40.71,-34.42 -52.63,-52.29 -11.91,-17.87 -17.87,-36.74 -17.87,-56.27 0,-26.48 8.94,-51.3 26.81,-74.8 17.87,-23.17 51.96,-54.94 102.27,-94.99zm-50.97 -505.74c-64.87,0 -115.18,23.17 -151.26,69.84 -36.07,46.67 -53.95,102.27 -53.95,166.81 0,65.54 17.88,121.14 53.95,167.15 36.08,46 83.74,68.84 142.66,68.84 57.25,0 104.92,-22.51 143.31,-67.85 38.06,-45.34 57.26,-101.94 57.26,-169.79 0,-68.85 -18.54,-125.11 -55.27,-169.13 -37.07,-44.02 -82.75,-65.87 -136.7,-65.87zm52.3 809.25c-132.4,33.76 -232.02,71.82 -298.55,114.19 -66.53,42.69 -99.95,89.03 -99.95,139.67 0,45.34 27.14,86.39 81.75,123.12 54.61,36.74 136.36,54.95 245.58,54.95 125.78,0 224.74,-24.16 296.89,-72.16 72.49,-47.99 108.57,-102.6 108.57,-164.16 0,-33.76 -14.57,-60.24 -44.02,-79.77 -29.13,-19.53 -89.04,-44.68 -179.07,-76.12l-111.2 -39.72z"/>
   <path id="_13" class="fil0" d="M16372.45 1407.93l255.18 -103.26 42.7 0 0 313.76c66.53,-113.19 125.77,-193.62 178.07,-240.95 52.29,-47.33 105.58,-70.83 160.52,-70.83 21.18,0 46.67,4.97 76.46,14.56l0 297.22 -69.51 0c-0.66,-116.5 -34.42,-174.75 -101.28,-174.75 -65.86,0 -125.11,54.28 -176.74,163.17 -51.63,108.89 -77.45,232.35 -77.45,370.04 0,81.09 14.89,134.37 45.01,158.87 29.79,24.49 87.05,36.73 171.45,36.73l0 45.68 -504.41 0 0 -45.68c52.95,-1.32 91.02,-12.9 114.19,-34.75 23.16,-21.84 34.75,-61.23 34.75,-118.16l0 -500.44c0,-57.92 -20.85,-87.05 -62.89,-87.05 -17.54,0 -46,7.28 -86.05,21.52l0 -45.68z"/>
   <path id="_14" class="fil0" d="M17258.15 1449.63c148.94,-97.97 289.28,-146.95 420.68,-146.95 61.56,0 105.91,13.57 133.38,40.71 27.14,27.14 40.38,73.15 39.72,137.69l0 606.02c0,29.13 13.24,43.69 39.39,43.69 25.48,0 70.83,-29.79 135.37,-89.36l0 59.57c-98.3,96.65 -178.4,144.97 -240.29,144.97 -55.61,0 -83.41,-30.78 -83.41,-92.67l0 -142.99c-80.76,82.42 -148.94,142.33 -204.88,179.73 -55.6,37.4 -108.56,55.93 -158.21,55.93 -48.32,0 -89.69,-18.86 -123.78,-56.6 -34.09,-37.73 -51.31,-83.73 -51.31,-138.01 0,-140.01 179.4,-290.94 538.18,-452.78l0 -116.84c0,-35.75 -10.59,-65.2 -31.78,-88.37 -21.51,-23.5 -50.64,-35.09 -88.37,-35.09 -63.55,0 -120.47,30.79 -170.12,92.68 -49.65,61.89 -79.44,139.01 -89.03,231.02l-65.54 0 0 -232.35zm454.77 228.38c-119.16,24.49 -215.8,66.53 -289.94,126.1 -74.14,59.58 -111.21,120.81 -111.21,183.37 0,39.71 12.25,71.82 37.07,95.65 24.82,23.83 57.26,35.75 97.31,35.75 74.14,0 136.69,-39.06 187.99,-117.5 51.31,-78.11 77.45,-186.01 78.78,-323.37z"/>
   <path id="_15" class="fil0" d="M18616.17 976.99l335.61 -127.09 0 39.72c-26.48,10.92 -39.72,33.09 -39.72,65.86l0 1085.95c0,52.62 23.17,78.77 69.51,78.77 20.85,0 46.67,-6.95 77.45,-21.18l0 49.64 -249.89 97.31 -46.01 0 0 -313.44c-111.21,141.99 -192.96,229.7 -244.92,263.13 -52.3,33.43 -103.27,50.31 -153.91,50.31 -84.73,0 -152.91,-38.39 -204.55,-114.85 -51.96,-76.79 -77.78,-164.49 -77.78,-263.13 0,-135.7 49.98,-264.12 150.27,-384.6 100.29,-120.47 211.49,-180.71 332.96,-180.71 27.14,0 57.26,4.3 90.36,12.58 32.77,8.6 68.85,21.51 107.57,39.38l0 -261.8c0,-54.94 -21.18,-82.75 -63.22,-82.75 -22.17,0 -49.97,6.95 -83.73,20.52l0 -53.62zm145.3 506.74c-45.35,-37.41 -89.37,-65.54 -132.73,-84.07 -43.36,-18.21 -85.39,-27.47 -126.76,-27.47 -82.09,0 -147.95,42.36 -197.93,127.42 -49.98,85.06 -75.13,182.37 -75.13,291.6 0,91.02 21.18,168.46 63.88,232.01 42.69,63.88 94.99,95.66 156.88,95.66 87.71,0 163.51,-57.59 227.39,-172.78 63.87,-114.85 95.98,-230.03 95.98,-345.21 0,-43.69 -3.97,-83.07 -11.58,-117.16z"/>
   <path id="_16" class="fil0" d="M19223.84 1449.63c148.94,-97.97 289.28,-146.95 420.68,-146.95 61.56,0 105.91,13.57 133.38,40.71 27.14,27.14 40.38,73.15 39.72,137.69l0 606.02c0,29.13 13.24,43.69 39.39,43.69 25.48,0 70.83,-29.79 135.37,-89.36l0 59.57c-98.3,96.65 -178.4,144.97 -240.29,144.97 -55.61,0 -83.41,-30.78 -83.41,-92.67l0 -142.99c-80.76,82.42 -148.94,142.33 -204.88,179.73 -55.6,37.4 -108.56,55.93 -158.21,55.93 -48.32,0 -89.69,-18.86 -123.78,-56.6 -34.09,-37.73 -51.31,-83.73 -51.31,-138.01 0,-140.01 179.4,-290.94 538.18,-452.78l0 -116.84c0,-35.75 -10.59,-65.2 -31.78,-88.37 -21.51,-23.5 -50.64,-35.09 -88.37,-35.09 -63.55,0 -120.47,30.79 -170.12,92.68 -49.65,61.89 -79.44,139.01 -89.03,231.02l-65.54 0 0 -232.35zm454.77 228.38c-119.16,24.49 -215.8,66.53 -289.94,126.1 -74.14,59.58 -111.21,120.81 -111.21,183.37 0,39.71 12.25,71.82 37.07,95.65 24.82,23.83 57.26,35.75 97.31,35.75 74.14,0 136.69,-39.06 187.99,-117.5 51.31,-78.11 77.45,-186.01 78.78,-323.37z"/>
   <g>
    <path class="fil1" d="M926.44 3245.95c-554.65,-285.56 -934.02,-863.72 -934.02,-1530.52 0,-767.34 502.42,-1417.23 1196.19,-1638.94 49.28,-15.79 228.86,-49.97 278.12,-57.48 76.02,-11.6 150.01,-17.64 236.14,-17.35 86.14,0.29 184.44,6.91 272,18.91 227.74,31.2 560.9,120.39 708.04,357.64 20.02,32.27 14.38,55.28 0.91,46.04 -13.47,-9.24 -40.4,-47.86 -72.35,-77.81 -31.96,-29.95 -68.92,-51.26 -131.2,-59.24 -62.27,-7.99 -149.85,-2.66 -237.73,17.22 -87.86,19.89 -176.02,54.35 -244.07,126.92 -68.03,72.55 -115.96,183.21 -201.18,249.57 -85.2,66.37 -207.69,88.42 -324.19,87.76 -116.49,-0.67 -226.99,-24.07 -314.19,-67.04 -87.21,-42.98 -151.1,-105.55 -197.19,-160.01 -46.09,-54.46 -74.37,-100.83 -93.98,-134.77 -19.6,-33.96 -30.55,-55.5 -52.01,-63.91 -17.65,-6.93 -42.41,-4.97 -66.87,-1.1 -391.07,305.17 -642.58,780.86 -642.58,1315.36 0,578.47 294.56,1088.07 741.81,1387.19 23.71,71.2 49.87,138.54 78.35,201.56z"/>
    <path class="fil2" d="M2922.41 533.5c324.41,308.58 527.45,827.91 519.33,1181.93 -8.12,354.01 -47.67,461.19 -133.77,666.06l0.04 0c-3.43,8.14 -6.91,16.26 -10.46,24.35l-5.39 12.04 -8.14 17.91 -5.76 12.44c-4.16,8.83 -8.42,17.61 -12.73,26.37l-5.58 11.19c-3.62,7.2 -7.28,14.39 -11,21.54l-5.07 9.73c-4.48,8.5 -9.04,16.95 -13.66,25.36l-5.58 10.08c-4.49,8.03 -9.02,16.05 -13.64,24.01l-6.8 11.56c-3.8,6.45 -7.64,12.88 -11.53,19.29l-6.67 10.89c-5.18,8.38 -10.4,16.72 -15.73,25.01l-6.65 10.21c-3.92,6.02 -7.86,12 -11.85,17.96l-6.65 9.92c-5.48,8.04 -11.03,16.05 -16.63,24.01l-7.7 10.8c-4.34,6.07 -8.76,12.12 -13.18,18.13l-6.17 8.39c-5.95,7.98 -11.98,15.88 -18.07,23.75l-7.68 9.86c-5.1,6.5 -10.24,12.96 -15.43,19.38l-9.15 11.21c-4.82,5.86 -9.67,11.7 -14.55,17.49l-8.96 10.56c-6.31,7.35 -12.67,14.67 -19.09,21.9l-6.75 7.51c-5.23,5.83 -10.5,11.61 -15.8,17.36l-8.01 8.66c-6.65,7.1 -13.34,14.14 -20.11,21.13l-8.73 8.92c-5.14,5.24 -10.33,10.44 -15.54,15.63l-8.17 8.1c-6.74,6.61 -13.55,13.13 -20.4,19.64l-10.51 9.87c-5.63,5.26 -11.3,10.46 -17,15.65l-10.32 9.29c-6.02,5.39 -12.08,10.72 -18.18,16.02l-10.55 9.1c-5.97,5.09 -11.98,10.15 -18.02,15.17l-14.53 11.93 -13.84 11.14 -11.91 9.44c-7.14,5.58 -14.32,11.1 -21.55,16.57l-12.29 9.18 -14.81 10.88 -11.12 8.06c-7.53,5.39 -15.13,10.68 -22.76,15.95l-12.65 8.64c-5.5,3.74 -11.02,7.44 -16.58,11.1l-15.87 10.34c-5.8,3.75 -11.63,7.47 -17.48,11.14l-13.29 8.28c-5.68,3.5 -11.4,6.94 -17.13,10.39 -6.3,3.77 -12.65,7.51 -19.01,11.21l-15.93 9.18 -13.19 7.44c-7.09,3.95 -14.22,7.82 -21.38,11.67l-16.69 8.85 -14.71 7.61c-5.39,2.76 -10.78,5.5 -16.2,8.19 -6.94,3.46 -13.9,6.87 -20.9,10.24l-0.22 0.1 -0.35 0.18 -0.35 0.16 -0.34 0.17 -14.08 6.67 -17.21 7.96c-6.7,3.05 -13.42,6.05 -20.15,9.02l-17.35 7.54 -15.3 6.44 -18.31 7.48c-7.4,2.98 -14.82,5.89 -22.25,8.76l-13.8 5.28 -17.77 6.58 -19.04 6.76 -16.25 5.61 -0.28 0.26c-173.32,58.7 -359.05,90.53 -552.19,90.53 -193.15,0 -378.86,-31.82 -552.17,-90.53 -78.86,-74.29 -125.25,-165.2 -125.25,-263.36 0,-251.03 303.29,-454.55 677.42,-454.53 138.4,0 267.08,27.87 374.31,75.67l0 -0.04c303.1,124.49 621.6,120.44 830.01,-10.34l7.97 -5.03 1.66 -1.05 6.16 -3.92 3.24 -2.06 4.41 -2.83 4.75 -3.05 2.75 -1.79 6.18 -4.02 1.15 -0.76 7.19 -4.72 0.36 -0.24 6.67 -4.42 1.82 -1.21 5.07 -3.41 3.19 -2.15 3.55 -2.4 4.51 -3.07 2.08 -1.44 5.77 -3.97 0.68 -0.48 6.32 -4.41 0.64 -0.44 5.53 -3.92 1.9 -1.34 4.16 -2.96 3.09 -2.24 2.82 -2.03 4.24 -3.09 1.54 -1.14 5.33 -3.93 0.32 -0.25 5.53 -4.14 0.83 -0.62 4.58 -3.49 5.09 -3.92 0.19 -0.15 2.98 -2.31 2.19 -1.71 1.35 -1.06c4.32,-3.4 8.49,-6.74 12.55,-10.06l0.95 -0.77 0.97 -0.8 3.75 -3.11 4.62 -3.88 2.83 -2.4 1.7 -1.45 3.69 -3.18 0.72 -0.64 4.33 -3.8 0.18 -0.16 4.05 -3.62 1.04 -0.94 3.08 -2.81 1.89 -1.73 2.17 -2 2.67 -2.51 1.28 -1.22 3.42 -3.27 0.44 -0.42 3.79 -3.69 0.35 -0.35 3.36 -3.33 1.11 -1.12 2.52 -2.54 1.84 -1.89 1.7 -1.77c3.53,-3.64 6.93,-7.27 10.23,-10.91l0.48 -0.52 2.8 -3.09 1.15 -1.29 2.06 -2.34 0.25 -0.29 2.89 -3.33 2.41 -2.8 0.68 -0.82 2.99 -3.57 0.05 -0.06 2.97 -3.61 0.58 -0.72 2.34 -2.92 1.18 -1.46 1.71 -2.17 1.75 -2.23 1.07 -1.41 2.31 -3.01 0.48 -0.64 2.74 -3.66 0.11 -0.13 2.61 -3.54 0.65 -0.9 2.01 -2.79 1.22 -1.69 1.42 -2.02 1.74 -2.47 0.86 -1.23 0.06 -0.09c2.53,-3.61 5,-7.29 7.44,-10.96l0.14 -0.22 0.74 -1.12 1.76 -2.67 1.26 -1.93 1.22 -1.89 0.06 -0.09c13.52,-20.99 26.26,-43.09 40,-67.44 98.97,-213.22 154.27,-427.4 154.27,-701.41 0,-274 -83.29,-573.54 -219.74,-815.35 -70.42,-127.98 -160.79,-234.82 -253.01,-331.76z"/>
    <path class="fil3" d="M1096.66 1827.66l3.54 -3.55 -3.54 -3.45c-171.58,-171.59 -171.58,-449.79 0,-621.38 171.05,-171.04 448.01,-171.56 619.72,-1.62 167.62,-167.78 439.4,-172.46 612.71,-8.42 176.25,166.79 183.91,444.89 17.1,621.14 -3.92,4.13 -7.91,8.15 -11.95,12.1l5.19 5.18 -621.39 621.38 -621.38 -621.38z"/>
   </g>
  </g>
 </g>
</svg>
