<?xml version="1.0" encoding="UTF-8"?>
<!DOCTYPE svg PUBLIC "-//W3C//DTD SVG 1.1//EN" "http://www.w3.org/Graphics/SVG/1.1/DTD/svg11.dtd">
<!-- Creator: CorelDRAW -->
<svg xmlns="http://www.w3.org/2000/svg" xml:space="preserve" width="96.778mm" height="24.932mm" version="1.1" style="shape-rendering:geometricPrecision; text-rendering:geometricPrecision; image-rendering:optimizeQuality; fill-rule:evenodd; clip-rule:evenodd"
viewBox="0 0 9677.8 2493.2"
 xmlns:xlink="http://www.w3.org/1999/xlink"
 xmlns:xodm="http://www.corel.com/coreldraw/odm/2003">
 <defs>
  <style type="text/css">
   <![CDATA[
    .fil4 {fill:#007744}
    .fil2 {fill:#149A7B}
    .fil3 {fill:#D5E162}
    .fil0 {fill:#007744;fill-rule:nonzero}
    .fil1 {fill:#149A7B;fill-rule:nonzero}
   ]]>
  </style>
 </defs>
 <g id="Capa_x0020_1">
  <metadata id="CorelCorpID_0Corel-Layer"/>
  <g id="_2694704214144">
   <g>
    <g>
     <path class="fil0" d="M3895.96 397.1l124.31 0 272.03 332.69 0 -101.1c0,-64.96 -5.51,-116.55 -16.39,-154.67 -10.88,-38.11 -28.16,-58.45 -51.97,-60.89l0 -16.03 163.59 0 0 16.03c-45.56,4.07 -68.35,72.4 -68.35,204.99l0 230.08 -17.54 0 -323.49 -396.95 0 126.78c0,80.18 5.38,139.32 16.13,177.32 10.62,38.12 28.04,58.57 52.23,61.47l0 16.04 -162.06 0 0 -16.04c45.56,-6.5 68.35,-84.82 68.35,-234.96l0 -117.83c0,-20.22 -4.35,-33.7 -13.05,-40.32 -8.72,-6.63 -23.3,-10.11 -43.79,-10.58l0 -16.03z"/>
     <path class="fil0" d="M4527.56 563.04c57.6,-34.4 111.88,-51.6 162.71,-51.6 23.81,0 40.96,4.77 51.59,14.29 10.49,9.53 15.61,25.69 15.36,48.35l0 212.76c0,10.23 5.12,15.34 15.23,15.34 9.86,0 27.4,-10.46 52.37,-31.37l0 20.91c-38.03,33.94 -69.01,50.9 -92.95,50.9 -21.5,0 -32.26,-10.81 -32.26,-32.54l0 -50.2c-31.23,28.94 -57.6,49.97 -79.24,63.1 -21.5,13.13 -41.99,19.64 -61.19,19.64 -18.69,0 -34.69,-6.62 -47.88,-19.87 -13.19,-13.25 -19.84,-29.4 -19.84,-48.46 0,-49.15 69.38,-102.14 208.15,-158.96l0 -41.02c0,-12.55 -4.09,-22.89 -12.29,-31.03 -8.32,-8.25 -19.59,-12.32 -34.17,-12.32 -24.58,0 -46.6,10.81 -65.8,32.54 -19.21,21.73 -30.73,48.81 -34.44,81.11l-25.35 0 0 -81.57zm175.89 80.18c-46.08,8.6 -83.46,23.35 -112.14,44.27 -28.67,20.92 -43.01,42.41 -43.01,64.38 0,13.94 4.74,25.21 14.34,33.58 9.6,8.37 22.14,12.55 37.64,12.55 28.66,0 52.87,-13.71 72.71,-41.25 19.84,-27.43 29.95,-65.31 30.46,-113.53z"/>
     <path class="fil0" d="M5055.97 413.83l0 17.43c-15.87,3.37 -23.81,19.52 -23.81,48.34 0,19.52 1.8,33.12 5.51,40.79 3.58,7.78 10.12,14.18 19.2,19.17 9.21,5 21.51,7.44 36.86,7.44l31.37 0 0 15.34 -92.17 0 0 219.04c0,7.09 1.54,12.44 4.74,16.04 3.08,3.6 7.8,5.46 13.95,5.46 12.29,0 30.6,-8.95 54.79,-26.96 2.81,-2.09 4.86,-3.49 6.4,-4.42l0 19.53c-42.63,34.39 -76.68,51.59 -102.03,51.59 -11.9,0 -20.73,-4.18 -26.63,-12.43 -5.88,-8.25 -8.82,-20.57 -8.82,-36.96l0 -230.89 -56.84 0 0 -15.34c22.02,0 37.63,-3.95 46.85,-11.85 9.22,-7.9 13.82,-21.73 13.82,-41.6l0 -51.13 76.81 -28.59z"/>
     <path class="fil0" d="M5228.37 534.45l129.81 -21.61 0 13.24c-10.24,2.68 -15.36,10.58 -15.36,23.48l0 210.21c0,13.83 3.33,24.63 10.12,32.65 6.65,7.9 15.61,11.85 26.88,11.85 28.67,0 57.09,-19.52 85.5,-58.56 28.43,-39.05 42.64,-84.95 42.64,-137.7 0,-20.34 -2.94,-35.45 -8.7,-45.32 -5.77,-10 -16.13,-14.88 -30.86,-14.88 -4.74,0 -11.78,0.82 -21.12,2.68l0 -16.04 130.58 -21.61 0 13.24c-10.75,1.63 -16.14,9.42 -16.14,23.48l0 219.16c0,21.26 8.58,31.84 25.86,31.84 10.24,0 23.43,-3.37 39.43,-10.23l0 16.04 -104.33 37.65 -18.57 0 0 -113.19c-39.29,48.46 -70.4,79.25 -93.32,92.27 -22.91,13.01 -44.03,19.52 -63.62,19.52 -41.35,0 -61.95,-26.49 -61.95,-79.37l0 -185.34c0,-19.64 -11.79,-29.52 -35.46,-29.52 -5.13,0 -12.17,0.7 -21.39,2.1l0 -16.04z"/>
     <path class="fil0" d="M5738.61 548.39l98.69 -36.25 16.52 0 0 110.16c25.73,-39.74 48.65,-67.98 68.87,-84.6 20.23,-16.61 40.84,-24.86 62.09,-24.86 8.2,0 18.05,1.74 29.57,5.11l0 104.35 -26.88 0c-0.25,-40.9 -13.32,-61.36 -39.17,-61.36 -25.47,0 -48.39,19.06 -68.36,57.29 -19.97,38.23 -29.96,81.58 -29.96,129.92 0,28.47 5.77,47.18 17.41,55.78 11.52,8.59 33.67,12.89 66.31,12.89l0 16.04 -195.09 0 0 -16.04c20.48,-0.46 35.21,-4.53 44.16,-12.2 8.96,-7.67 13.44,-21.5 13.44,-41.48l0 -175.7c0,-20.34 -8.06,-30.56 -24.32,-30.56 -6.79,0 -17.79,2.55 -33.28,7.55l0 -16.04z"/>
     <path class="fil0" d="M6163.01 563.04c57.6,-34.4 111.88,-51.6 162.71,-51.6 23.81,0 40.96,4.77 51.59,14.29 10.49,9.53 15.61,25.69 15.36,48.35l0 212.76c0,10.23 5.12,15.34 15.23,15.34 9.86,0 27.4,-10.46 52.36,-31.37l0 20.91c-38.02,33.94 -69,50.9 -92.94,50.9 -21.51,0 -32.26,-10.81 -32.26,-32.54l0 -50.2c-31.23,28.94 -57.6,49.97 -79.24,63.1 -21.5,13.13 -41.99,19.64 -61.19,19.64 -18.69,0 -34.7,-6.62 -47.88,-19.87 -13.19,-13.25 -19.84,-29.4 -19.84,-48.46 0,-49.15 69.38,-102.14 208.15,-158.96l0 -41.02c0,-12.55 -4.1,-22.89 -12.29,-31.03 -8.32,-8.25 -19.59,-12.32 -34.17,-12.32 -24.58,0 -46.6,10.81 -65.81,32.54 -19.2,21.73 -30.72,48.81 -34.43,81.11l-25.35 0 0 -81.57zm175.89 80.18c-46.09,8.6 -83.46,23.35 -112.14,44.27 -28.68,20.92 -43.01,42.41 -43.01,64.38 0,13.94 4.74,25.21 14.33,33.58 9.61,8.37 22.15,12.55 37.65,12.55 28.66,0 52.87,-13.71 72.71,-41.25 19.84,-27.43 29.95,-65.31 30.46,-113.53z"/>
     <path class="fil0" d="M6691.87 365.03c-10.24,4.76 -15.36,13.01 -15.36,24.86l0 373.25c0,20.22 4.48,34.05 13.57,41.6 9.09,7.67 23.43,11.62 43.27,12.08l0 16.04 -172.05 0 0 -16.04c20.48,-0.46 35.2,-4.53 44.16,-12.43 8.96,-7.79 13.44,-21.5 13.44,-41.25l0 -324.09c0,-20.92 -9.47,-31.38 -28.42,-31.38 -7.93,0 -17.66,1.86 -29.18,5.46l0 -16.03 130.57 -46.02 0 13.95z"/>
     <path class="fil0" d="M7136.81 747.1c-55.69,63.68 -109.97,95.52 -162.97,95.52 -37.24,0 -70.02,-14.64 -98.44,-44.04 -28.54,-29.28 -42.76,-64.03 -42.76,-104.35 0,-46.48 16.9,-88.32 50.7,-125.5 33.8,-37.3 73.74,-55.89 119.56,-55.89 37,0 66.19,11.73 87.95,35.32 21.77,23.47 33.16,52.18 34.43,85.99l-241.17 0c-0.51,8.83 -0.77,15.34 -0.77,19.52 0,40.33 11.78,74.03 35.2,100.99 23.43,27.07 52.36,40.55 86.8,40.55 43.01,0 86.8,-23.47 131.47,-70.42l0 22.31zm-72.97 -128.98c-2.95,-26.5 -12.29,-47.07 -28.03,-61.71 -15.75,-14.64 -34.32,-21.96 -55.69,-21.96 -22.41,0 -42.5,7.9 -60.17,23.82 -17.66,15.81 -28.54,35.79 -32.51,59.85l176.4 0z"/>
     <path class="fil0" d="M7258.65 505.86l17.67 0 0 2.68c0,8.48 6.52,12.66 19.58,12.66l226.96 0 0 16.62 -219.66 279 80.26 0c79.63,0 120.84,-29.05 123.27,-87.15l25.35 0 0 118.53 -17.67 0c-0.5,-6.28 -2.81,-10.34 -6.77,-12.32 -3.98,-1.97 -12.04,-3.02 -23.94,-3.02l-248.86 0 0 -16.38 219.92 -279.24 -71.05 0c-63.75,0 -97.16,25.56 -100.49,76.69l-24.57 0 0 -108.07z"/>
     <path class="fil0" d="M7704.18 563.04c57.6,-34.4 111.88,-51.6 162.71,-51.6 23.8,0 40.96,4.77 51.59,14.29 10.49,9.53 15.61,25.69 15.36,48.35l0 212.76c0,10.23 5.12,15.34 15.23,15.34 9.86,0 27.4,-10.46 52.36,-31.37l0 20.91c-38.03,33.94 -69.01,50.9 -92.94,50.9 -21.51,0 -32.26,-10.81 -32.26,-32.54l0 -50.2c-31.23,28.94 -57.6,49.97 -79.24,63.1 -21.5,13.13 -42,19.64 -61.2,19.64 -18.68,0 -34.69,-6.62 -47.87,-19.87 -13.19,-13.25 -19.84,-29.4 -19.84,-48.46 0,-49.15 69.38,-102.14 208.15,-158.96l0 -41.02c0,-12.55 -4.1,-22.89 -12.29,-31.03 -8.32,-8.25 -19.59,-12.32 -34.18,-12.32 -24.57,0 -46.6,10.81 -65.8,32.54 -19.2,21.73 -30.72,48.81 -34.44,81.11l-25.34 0 0 -81.57zm175.88 80.18c-46.08,8.6 -83.46,23.35 -112.13,44.27 -28.68,20.92 -43.01,42.41 -43.01,64.38 0,13.94 4.74,25.21 14.33,33.58 9.61,8.37 22.15,12.55 37.65,12.55 28.66,0 52.86,-13.71 72.7,-41.25 19.84,-27.43 29.96,-65.31 30.46,-113.53z"/>
    </g>
    <path class="fil1" d="M3055.96 1198.29c-30.48,-26.15 -53.26,-53.83 -68.67,-83.63 -15.42,-29.8 -23.12,-60.81 -23.12,-93.66 0,-85.44 43.22,-160.25 129.99,-224.41 86.42,-64.17 187.92,-96.09 304.17,-96.09 58.29,0 136.01,15.2 233.15,45.61l0 279.15 -72.36 0c-5.35,-77.84 -31.48,-141.4 -78.72,-190.66 -46.9,-49.26 -104.85,-73.9 -172.86,-73.9 -55.61,0 -101.83,15.51 -138.01,46.53 -36.52,31.02 -54.61,70.24 -54.61,117.68 0,45.62 18.09,88.19 54.61,128.02 35.84,39.54 121.6,100.66 257.28,183.67 102.83,62.65 172.18,113.12 208.03,152.05 35.16,39.22 52.92,87.27 52.92,144.44 0,93.35 -47.22,176.67 -142.03,249.35 -94.81,72.98 -202.34,109.47 -322.26,109.47 -86.11,0 -182.58,-18.24 -289.45,-54.73l0 -322.94 70.35 0c0,90.31 28.81,165.72 86.77,226.54 57.61,60.52 126.29,90.92 205.68,90.92 72.7,0 130.32,-19.15 172.53,-57.77 42.55,-38.62 63.64,-87.58 63.64,-147.18 0,-51.7 -17.41,-97.01 -52.25,-136.23 -34.84,-38.62 -113.9,-94.88 -237.51,-169.08 -67.67,-40.44 -130.31,-81.49 -187.27,-123.15z"/>
    <path class="fil1" d="M4003.83 1160.28c150.75,-90.01 292.78,-135.02 425.78,-135.02 62.31,0 107.19,12.47 135,37.4 27.47,24.94 40.87,67.21 40.2,126.51l0 556.78c0,26.76 13.4,40.14 39.87,40.14 25.8,0 71.69,-27.37 137.01,-82.1l0 54.73c-99.49,88.8 -180.56,133.19 -243.21,133.19 -56.27,0 -84.42,-28.28 -84.42,-85.14l0 -131.37c-81.73,75.72 -150.75,130.76 -207.36,165.12 -56.27,34.36 -109.88,51.39 -160.13,51.39 -48.91,0 -90.78,-17.33 -125.29,-52 -34.5,-34.66 -51.92,-76.93 -51.92,-126.8 0,-128.63 181.56,-267.29 544.7,-415.99l0 -107.35c0,-32.84 -10.72,-59.9 -32.16,-81.19 -21.77,-21.59 -51.25,-32.23 -89.44,-32.23 -64.31,0 -121.94,28.28 -172.19,85.14 -50.24,56.87 -80.39,127.72 -90.11,212.26l-66.33 0 0 -213.47zm460.29 209.82c-120.6,22.5 -218.43,61.12 -293.46,115.86 -75.04,54.73 -112.56,110.99 -112.56,168.46 0,36.49 12.39,65.99 37.52,87.88 25.13,21.9 57.96,32.84 98.48,32.84 75.05,0 138.36,-35.88 190.28,-107.95 51.93,-71.76 78.39,-170.9 79.74,-297.09z"/>
    <path class="fil1" d="M5299.17 1546.47c-7.7,1.22 -19.44,2.74 -35.18,4.56 -46.89,6.99 -82.07,10.64 -105.52,10.64 -79.39,0 -145.39,-19.76 -198.32,-58.99 -52.59,-39.53 -79.05,-90.62 -79.05,-153.56 0,-81.8 44.55,-155.7 133.99,-221.38 89.11,-65.99 187.94,-98.83 296.47,-98.83 28.15,0 51.93,2.43 71.7,6.99 19.42,4.87 56.27,17.03 109.87,36.5 56.95,21.28 97.82,34.66 122.62,40.74 24.78,5.78 54.26,8.82 88.09,8.82l69.68 0 0 41.97 -200.32 0c15.74,30.71 23.44,58.99 23.44,84.53 0,35.58 -10.37,72.07 -31.48,109.47 -20.78,37.41 -71.35,87.28 -151.09,149.62 -78.05,61.12 -116.91,103.99 -116.91,128.93 0,19.76 14.07,37.1 42.21,52.61 27.47,16.11 76.04,34.36 146.05,55.34 100.5,30.41 174.54,60.21 221.44,90.01 47.23,29.8 70.68,69.33 70.68,118.6 0,89.4 -62.64,165.12 -188.27,228.06 -125.62,62.64 -266.99,93.96 -424.77,93.96 -116.24,0 -213.05,-18.54 -290.44,-55.64 -77.05,-37.1 -115.58,-86.06 -115.58,-146.57 0,-59.91 43.55,-113.43 130.32,-160.87 86.76,-47.13 203.68,-83.62 351.08,-109.77 -23.46,-15.82 -41.2,-31.63 -53.27,-48.05 -12.06,-16.42 -18.09,-33.75 -18.09,-51.69 0,-24.33 9.05,-47.14 27.14,-68.73 18.09,-21.28 52.59,-50.48 103.51,-87.27zm-51.59 -464.65c-65.66,0 -116.58,21.29 -153.1,64.16 -36.51,42.88 -54.59,93.97 -54.59,153.27 0,60.2 18.08,111.29 54.59,153.56 36.52,42.27 84.76,63.25 144.39,63.25 57.95,0 106.19,-20.68 145.06,-62.34 38.52,-41.66 57.94,-93.66 57.94,-156 0,-63.25 -18.76,-114.94 -55.94,-155.38 -37.52,-40.45 -83.74,-60.52 -138.35,-60.52zm52.93 743.5c-134,31.02 -234.83,65.99 -302.17,104.91 -67.33,39.23 -101.16,81.8 -101.16,128.32 0,41.66 27.46,79.37 82.74,113.12 55.27,33.76 138.02,50.48 248.57,50.48 127.29,0 227.45,-22.2 300.49,-66.29 73.36,-44.09 109.88,-94.27 109.88,-150.83 0,-31.01 -14.74,-55.34 -44.56,-73.28 -29.48,-17.94 -90.12,-41.05 -181.23,-69.94l-112.56 -36.49z"/>
    <path class="fil1" d="M5937.74 1121.96l258.29 -94.87 43.2 0 0 288.27c67.34,-104 127.31,-177.89 180.23,-221.37 52.94,-43.49 106.87,-65.08 162.48,-65.08 21.44,0 47.23,4.56 77.38,13.38l0 273.07 -70.35 0c-0.67,-107.04 -34.83,-160.56 -102.51,-160.56 -66.66,0 -126.63,49.87 -178.88,149.92 -52.26,100.04 -78.39,213.47 -78.39,339.97 0,74.5 15.07,123.46 45.56,145.96 30.14,22.5 88.1,33.76 173.52,33.76l0 41.96 -510.53 0 0 -41.96c53.6,-1.22 92.13,-11.86 115.57,-31.93 23.45,-20.07 35.18,-56.26 35.18,-108.56l0 -459.78c0,-53.22 -21.1,-79.98 -63.65,-79.98 -17.75,0 -46.56,6.69 -87.1,19.77l0 -41.97z"/>
    <path class="fil1" d="M6839.59 1160.28c150.74,-90.01 292.78,-135.02 425.78,-135.02 62.31,0 107.19,12.47 134.99,37.4 27.48,24.94 40.88,67.21 40.2,126.51l0 556.78c0,26.76 13.41,40.14 39.87,40.14 25.8,0 71.7,-27.37 137.01,-82.1l0 54.73c-99.49,88.8 -180.56,133.19 -243.21,133.19 -56.27,0 -84.42,-28.28 -84.42,-85.14l0 -131.37c-81.73,75.72 -150.74,130.76 -207.36,165.12 -56.27,34.36 -109.87,51.39 -160.12,51.39 -48.91,0 -90.79,-17.33 -125.29,-52 -34.5,-34.66 -51.92,-76.93 -51.92,-126.8 0,-128.63 181.56,-267.29 544.69,-415.99l0 -107.35c0,-32.84 -10.71,-59.9 -32.15,-81.19 -21.77,-21.59 -51.25,-32.23 -89.44,-32.23 -64.32,0 -121.94,28.28 -172.19,85.14 -50.25,56.87 -80.4,127.72 -90.11,212.26l-66.33 0 0 -213.47zm460.28 209.82c-120.59,22.5 -218.42,61.12 -293.45,115.86 -75.05,54.73 -112.57,110.99 -112.57,168.46 0,36.49 12.4,65.99 37.52,87.88 25.13,21.9 57.96,32.84 98.49,32.84 75.04,0 138.36,-35.88 190.28,-107.95 51.93,-71.76 78.39,-170.9 79.73,-297.09z"/>
    <path class="fil1" d="M8267.47 726.04l339.69 -116.77 0 36.49c-26.8,10.03 -40.2,30.41 -40.2,60.51l0 997.72c0,48.35 23.44,72.37 70.35,72.37 21.1,0 47.23,-6.39 78.38,-19.46l0 45.61 -252.91 89.4 -46.57 0 0 -287.97c-112.55,130.46 -195.3,211.04 -247.9,241.75 -52.92,30.71 -104.51,46.22 -155.77,46.22 -85.75,0 -154.77,-35.27 -207.02,-105.52 -52.61,-70.54 -78.73,-151.13 -78.73,-241.75 0,-124.67 50.58,-242.66 152.08,-353.35 101.51,-110.68 214.06,-166.03 337.01,-166.03 27.47,0 57.96,3.95 91.46,11.56 33.16,7.9 69.67,19.76 108.87,36.18l0 -240.53c0,-50.48 -21.44,-76.02 -63.98,-76.02 -22.45,0 -50.59,6.38 -84.76,18.85l0 -49.26zm147.07 465.56c-45.9,-34.36 -90.46,-60.21 -134.34,-77.24 -43.89,-16.73 -86.43,-25.24 -128.31,-25.24 -83.07,0 -149.73,38.92 -200.32,117.07 -50.59,78.15 -76.04,167.56 -76.04,267.91 0,83.62 21.43,154.78 64.65,213.16 43.22,58.69 96.14,87.88 158.79,87.88 88.77,0 165.49,-52.91 230.15,-158.73 64.64,-105.52 97.14,-211.34 97.14,-317.16 0,-40.14 -4.02,-76.33 -11.72,-107.65z"/>
    <path class="fil1" d="M8895.92 1160.28c150.75,-90.01 292.79,-135.02 425.79,-135.02 62.31,0 107.19,12.47 134.99,37.4 27.48,24.94 40.87,67.21 40.2,126.51l0 556.78c0,26.76 13.41,40.14 39.87,40.14 25.8,0 71.69,-27.37 137.01,-82.1l0 54.73c-99.49,88.8 -180.56,133.19 -243.21,133.19 -56.27,0 -84.42,-28.28 -84.42,-85.14l0 -131.37c-81.73,75.72 -150.75,130.76 -207.36,165.12 -56.27,34.36 -109.88,51.39 -160.12,51.39 -48.92,0 -90.79,-17.33 -125.29,-52 -34.51,-34.66 -51.92,-76.93 -51.92,-126.8 0,-128.63 181.56,-267.29 544.69,-415.99l0 -107.35c0,-32.84 -10.72,-59.9 -32.15,-81.19 -21.77,-21.59 -51.25,-32.23 -89.45,-32.23 -64.31,0 -121.94,28.28 -172.18,85.14 -50.25,56.87 -80.4,127.72 -90.12,212.26l-66.33 0 0 -213.47zm460.29 209.82c-120.6,22.5 -218.42,61.12 -293.45,115.86 -75.05,54.73 -112.57,110.99 -112.57,168.46 0,36.49 12.39,65.99 37.52,87.88 25.13,21.9 57.96,32.84 98.49,32.84 75.04,0 138.35,-35.88 190.27,-107.95 51.94,-71.76 78.4,-170.9 79.74,-297.09z"/>
   </g>
   <g>
    <path class="fil2" d="M1930.15 1704.05c-196.73,102.37 -558.5,233.37 -520.55,470.43 24.67,154.11 169.6,259.04 323.71,234.37 58.45,-9.35 216.53,-100.45 278.44,-144.93 156.66,-116.4 284.21,-267.62 372.95,-441.41 119.25,-236.08 163.51,-511.4 121.67,-772.8 -87.01,-543.51 -508.71,-950.06 -1021.13,-1043.23 268.82,61.98 499.25,210.92 662.01,460.24 271.18,415.38 319.39,958.14 -217.1,1237.33z"/>
    <path class="fil3" d="M804.42 921.86c125.15,-133.47 327.81,-133.88 453.45,-1.26 122.65,-130.94 321.51,-134.59 448.33,-6.57 325.82,328.86 -237.51,759.6 -447.12,983.14 -215.25,-232.16 -763.46,-645.94 -454.66,-975.31z"/>
    <g>
     <path class="fil4" d="M1173.76 118.58c-140.33,-84.66 -295.77,-71.1 -438.43,-18.69 -517.35,235.46 -815.97,792.84 -722.28,1354.1 93.74,550.59 531.54,975.4 1086.61,1045.66 -58.57,-62.92 -116.67,-157.33 -109.83,-245.21 -38.67,-7.25 -76.57,-16.11 -113.66,-26.44 -517.35,-117.43 -824.21,-591.36 -807.48,-1012.74 0.31,-48.57 3.73,-98.28 10.58,-149.06 1.6,-10.53 4.54,-20.7 8.67,-30.29 68.26,-400.07 295.89,-676.46 628.64,-812.78 -208.32,113.31 -334.97,250.98 -435.11,448.96 122.71,-78.53 189.83,-67.79 335.02,-29.43 -154.11,33.47 -265.43,34.99 -387.3,162.22 -20.79,65.71 -30.66,94.08 -34.83,156.55 41.95,-1.45 92.33,19.92 140.74,19.31 254.33,-3.22 468.27,-167.22 465.1,-423.54 -3.14,-251.46 59.28,-474.98 373.56,-438.62z"/>
    </g>
   </g>
  </g>
 </g>
</svg>
