<?xml version="1.0" encoding="UTF-8"?>
<!DOCTYPE svg PUBLIC "-//W3C//DTD SVG 1.1//EN" "http://www.w3.org/Graphics/SVG/1.1/DTD/svg11.dtd">
<!-- Creator: CorelDRAW -->
<svg xmlns="http://www.w3.org/2000/svg" xml:space="preserve" width="35mm" height="35mm" version="1.1" style="shape-rendering:geometricPrecision; text-rendering:geometricPrecision; image-rendering:optimizeQuality; fill-rule:evenodd; clip-rule:evenodd"
viewBox="0 0 3500 3500"
 xmlns:xlink="http://www.w3.org/1999/xlink"
 xmlns:xodm="http://www.corel.com/coreldraw/odm/2003">
 <defs>
  <style type="text/css">
   <![CDATA[
    .fil0 {fill:#00A859}
    .fil1 {fill:#1BB18E}
    .fil2 {fill:#B0D831}
   ]]>
  </style>
 </defs>
 <g id="Capa_x0020_1">
  <metadata id="CorelCorpID_0Corel-Layer"/>
  <g id="_1731018153392">
   <path class="fil0" d="M945.08 3302.16c-562.76,-289.74 -947.68,-876.36 -947.68,-1552.91 0,-778.56 509.77,-1437.95 1213.69,-1662.91 50,-16.02 232.21,-50.7 282.18,-58.32 77.14,-11.77 152.21,-17.9 239.6,-17.61 87.4,0.3 187.14,7.02 275.98,19.19 231.07,31.65 569.1,122.15 718.4,362.87 20.31,32.75 14.59,56.09 0.91,46.72 -13.66,-9.38 -40.98,-48.56 -73.4,-78.95 -32.42,-30.39 -69.93,-52.01 -133.12,-60.11 -63.18,-8.11 -152.04,-2.7 -241.2,17.48 -89.15,20.17 -178.6,55.14 -247.64,128.77 -69.03,73.61 -117.67,185.89 -204.13,253.22 -86.45,67.34 -210.72,89.71 -328.93,89.05 -118.19,-0.68 -230.31,-24.42 -318.79,-68.03 -88.48,-43.61 -153.31,-107.09 -200.07,-162.34 -46.76,-55.27 -75.45,-102.31 -95.35,-136.75 -19.89,-34.45 -31.01,-56.31 -52.77,-64.84 -17.91,-7.03 -43.03,-5.04 -67.85,-1.12 -396.8,309.64 -651.98,792.28 -651.98,1334.6 0,586.93 298.86,1103.98 752.66,1407.48 24.05,72.24 50.59,140.56 79.49,204.51z"/>
   <path class="fil1" d="M2970.25 550.04c329.15,313.09 535.16,840.01 526.92,1199.21 -8.24,359.19 -48.37,467.93 -135.73,675.8l0.05 0c-3.48,8.27 -7.02,16.51 -10.61,24.71l-5.47 12.22 -8.27 18.17 -5.84 12.62c-4.22,8.96 -8.54,17.87 -12.92,26.76l-5.66 11.35c-3.67,7.31 -7.38,14.6 -11.15,21.85l-5.15 9.88c-4.55,8.62 -9.18,17.19 -13.87,25.73l-5.65 10.22c-4.56,8.15 -9.16,16.29 -13.84,24.36l-6.9 11.74c-3.86,6.54 -7.75,13.07 -11.7,19.57l-6.76 11.05c-5.27,8.5 -10.56,16.96 -15.96,25.38l-6.75 10.36c-3.98,6.1 -7.98,12.17 -12.03,18.21l-6.75 10.07c-5.56,8.16 -11.18,16.28 -16.87,24.36l-7.81 10.96c-4.41,6.16 -8.89,12.29 -13.37,18.39l-6.26 8.52c-6.05,8.09 -12.16,16.11 -18.34,24.1l-7.79 10c-5.18,6.59 -10.39,13.15 -15.65,19.66l-9.29 11.38c-4.89,5.94 -9.81,11.86 -14.76,17.74l-9.1 10.72c-6.39,7.45 -12.85,14.88 -19.36,22.22l-6.85 7.62c-5.31,5.91 -10.66,11.77 -16.04,17.61l-8.12 8.78c-6.75,7.21 -13.54,14.36 -20.41,21.45l-8.86 9.04c-5.21,5.32 -10.47,10.6 -15.76,15.86l-8.29 8.22c-6.83,6.71 -13.75,13.33 -20.7,19.93l-10.66 10.02c-5.71,5.33 -11.46,10.61 -17.25,15.87l-10.47 9.43c-6.11,5.47 -12.26,10.88 -18.45,16.26l-10.7 9.22c-6.05,5.18 -12.16,10.31 -18.29,15.4l-14.73 12.1 -14.05 11.31 -12.08 9.58c-7.25,5.65 -14.53,11.25 -21.87,16.81l-12.47 9.31 -15.03 11.04 -11.27 8.18c-7.65,5.47 -15.36,10.83 -23.1,16.18l-12.83 8.77c-5.59,3.79 -11.19,7.55 -16.83,11.26l-16.1 10.49c-5.89,3.81 -11.8,7.58 -17.74,11.31l-13.48 8.4c-5.77,3.55 -11.57,7.04 -17.38,10.53 -6.39,3.84 -12.83,7.62 -19.29,11.38l-16.17 9.31 -13.38 7.55c-7.19,4.01 -14.42,7.94 -21.69,11.85l-16.93 8.97 -14.93 7.73c-5.47,2.8 -10.94,5.58 -16.43,8.31 -7.05,3.5 -14.11,6.97 -21.21,10.39l-0.22 0.1 -0.35 0.18 -0.36 0.16 -0.35 0.18 -14.28 6.76 -17.47 8.08c-6.79,3.09 -13.61,6.14 -20.44,9.15l-17.61 7.65 -15.51 6.54 -18.59 7.59c-7.5,3.02 -15.03,5.97 -22.58,8.89l-14 5.35 -18.02 6.67 -19.32 6.87 -16.49 5.69 -0.28 0.26c-175.86,59.55 -364.3,91.86 -560.27,91.86 -195.98,0 -384.4,-32.29 -560.25,-91.86 -80,-75.38 -127.07,-167.62 -127.07,-267.21 0,-254.7 307.72,-461.2 687.32,-461.18 140.43,0 270.98,28.28 379.79,76.78l0 -0.05c307.53,126.32 630.68,122.2 842.14,-10.49l8.09 -5.1 1.68 -1.06 6.25 -3.98 3.29 -2.09 4.48 -2.87 4.82 -3.1 2.78 -1.81 6.28 -4.08 1.17 -0.77 7.29 -4.79 0.37 -0.25 6.76 -4.48 1.85 -1.22 5.14 -3.47 3.24 -2.18 3.6 -2.43 4.58 -3.12 2.11 -1.46 5.85 -4.03 0.69 -0.48 6.41 -4.48 0.65 -0.44 5.61 -3.98 1.93 -1.36 4.22 -3.01 3.14 -2.26 2.86 -2.07 4.3 -3.14 1.56 -1.15 5.41 -3.99 0.33 -0.25 5.61 -4.2 0.84 -0.63 4.64 -3.54 5.18 -3.98 0.19 -0.15 3.02 -2.34 2.22 -1.74 1.37 -1.08c4.38,-3.44 8.61,-6.83 12.74,-10.21l0.95 -0.78 0.99 -0.81 3.8 -3.15 4.69 -3.94 2.87 -2.43 1.73 -1.47 3.74 -3.23 0.74 -0.65 4.39 -3.86 0.18 -0.16 4.11 -3.67 1.06 -0.96 3.12 -2.84 1.92 -1.76 2.2 -2.03 2.71 -2.55 1.29 -1.24 3.48 -3.32 0.44 -0.42 3.85 -3.75 0.35 -0.35 3.41 -3.37 1.13 -1.14 2.55 -2.58 1.87 -1.91 1.73 -1.8c3.58,-3.7 7.03,-7.39 10.37,-11.07l0.49 -0.53 2.84 -3.14 1.17 -1.31 2.09 -2.37 0.25 -0.3 2.93 -3.37 2.45 -2.85 0.69 -0.82 3.04 -3.63 0.04 -0.06 3.02 -3.67 0.59 -0.72 2.38 -2.96 1.19 -1.49 1.74 -2.19 1.77 -2.27 1.09 -1.43 2.34 -3.05 0.49 -0.65 2.78 -3.72 0.11 -0.13 2.65 -3.6 0.66 -0.91 2.04 -2.83 1.23 -1.71 1.45 -2.05 1.77 -2.5 0.87 -1.25 0.05 -0.09c2.57,-3.67 5.07,-7.4 7.55,-11.13l0.15 -0.22 0.75 -1.13 1.78 -2.72 1.28 -1.96 1.24 -1.91 0.06 -0.09c13.72,-21.3 26.65,-43.73 40.59,-68.43 100.41,-216.34 156.52,-433.65 156.52,-711.66 0,-278.02 -84.5,-581.94 -222.96,-827.28 -71.44,-129.85 -163.14,-238.26 -256.7,-336.61z"/>
   <path class="fil2" d="M1117.79 1863.12l3.6 -3.59 -3.6 -3.51c-174.09,-174.09 -174.09,-456.37 0,-630.47 173.55,-173.54 454.57,-174.07 628.78,-1.64 170.08,-170.24 445.84,-174.99 621.68,-8.54 178.82,169.23 186.59,451.4 17.34,630.22 -3.97,4.19 -8.02,8.27 -12.11,12.27l5.26 5.26 -630.48 630.47 -630.47 -630.47z"/>
  </g>
 </g>
</svg>
