<?xml version="1.0" encoding="UTF-8"?>
<!DOCTYPE svg PUBLIC "-//W3C//DTD SVG 1.1//EN" "http://www.w3.org/Graphics/SVG/1.1/DTD/svg11.dtd">
<!-- Creator: CorelDRAW -->
<svg xmlns="http://www.w3.org/2000/svg" xml:space="preserve" width="92.377mm" height="23.061mm" version="1.1" style="shape-rendering:geometricPrecision; text-rendering:geometricPrecision; image-rendering:optimizeQuality; fill-rule:evenodd; clip-rule:evenodd"
viewBox="0 0 9237.7 2306.1"
 xmlns:xlink="http://www.w3.org/1999/xlink"
 xmlns:xodm="http://www.corel.com/coreldraw/odm/2003">
 <defs>
  <style type="text/css">
   <![CDATA[
    .fil0 {fill:#0C6316}
    .fil1 {fill:#149A7B}
    .fil3 {fill:#0C6316;fill-rule:nonzero}
    .fil2 {fill:#149A7B;fill-rule:nonzero}
   ]]>
  </style>
 </defs>
 <g id="Capa_x0020_1">
  <metadata id="CorelCorpID_0Corel-Layer"/>
  <g id="_1978054491072">
   <g>
    <path class="fil0" d="M1142.19 2182.06c5.48,28.17 11.42,82.74 12.78,109.46 1.32,26.74 -1.93,25.62 -42.52,12.26 -198.91,-65.39 -276.4,-137.71 -435.3,-263.37 -49.34,-39 -53.19,-37.09 -78.68,-30.44 -107.42,28.05 -211.82,3.01 -315.24,-72.29 -109.73,-79.9 -203.77,-246.6 -245.59,-381.04 -44.61,-143.38 -50.84,-347.35 -30.53,-495.07 28.55,-207.73 109.51,-441.95 226.52,-609.32l85.8 -104.11c-93.58,170.95 -121.46,328.1 42.2,477.59 209.6,191.45 435.57,168.96 550.11,440.57 54.57,129.41 56.67,225.09 24.95,364.19 -21.02,92.2 -51.89,174.94 -92.58,241.49 -25.11,41.07 -22.13,35.8 -65.78,10.02 -157.91,-93.28 -278.31,-222.47 -386.33,-395.15 -75.53,-120.74 -119.58,-247.46 -152.37,-353.23 -8.31,-26.8 -8.77,-30.28 -8.81,-30.55 0,0 23.64,155.3 59.81,254.2 86.7,237.07 254.1,413.64 438.64,570.69 163.72,139.34 215.11,153.07 388.31,218.86 14.08,5.34 19.1,7.08 24.61,35.24z"/>
    <path class="fil1" d="M2148.51 472.02c1.52,-2.74 6.62,3.39 42.11,49.93 122,159.97 230.68,321.81 250.39,559.01 31.05,373.62 -140.64,845.78 -483.6,1008.92 -140.38,66.78 -321.63,104.72 -469.75,45.37 -223.76,-89.65 -318.52,-378.55 -242.82,-567.48 75.69,-188.94 178.71,-232.96 355.57,-271.39 176.86,-38.44 375.83,-58.1 490.45,-264.71 111.94,-201.77 54.91,-554.82 57.65,-559.65z"/>
    <path class="fil2" d="M1224.42 217.11c80.14,-140.15 160.26,-210.25 320.52,-210.25 176.94,0 320.52,125.6 320.52,280.35 0,280.33 -320.52,560.66 -641.04,841.01 -320.49,-280.35 -641.01,-560.68 -641.01,-841.01 0,-154.75 143.58,-280.35 320.52,-280.35 160.26,0 240.38,70.1 320.49,210.25z"/>
   </g>
   <g>
    <path class="fil3" d="M3679.05 817.47c0,8.17 -3.8,12.34 -11.21,12.34 -12.14,0 -30.56,-0.19 -54.85,-0.57 -24.3,-0.37 -42.53,-0.57 -54.88,-0.57 -6.64,0 -10.06,-5.32 -10.06,-16.14 0,-18.22 0.57,-45.75 1.71,-82.96 1.14,-37.02 1.71,-64.92 1.71,-83.35 0,-14.98 -0.19,-37.02 -0.57,-66.63 -0.37,-29.42 -0.57,-51.63 -0.57,-66.44 0,-42.35 -6.08,-72.14 -18.23,-89.61 -14.98,-20.69 -42.33,-31.15 -82.38,-31.15 -18.41,0 -44.25,10.46 -77.27,31.33 -34.75,21.84 -52.22,41.39 -52.22,58.48l0 333.75c0,9.12 -3.6,13.86 -10.63,13.86 -11.75,0 -29.61,-0.19 -53.34,-0.57 -23.92,-0.37 -41.59,-0.57 -53.54,-0.57 -7.78,0 -11.77,-4.17 -11.77,-12.72 0,-29.42 0.57,-73.29 1.51,-131.94 0.97,-58.66 1.34,-102.71 1.34,-132.52 0,-78.98 -8.17,-151.87 -24.49,-218.5 -1.14,-3.43 -1.72,-5.89 -1.72,-7.23 0,-3.8 2.49,-6.46 7.23,-7.97 2.66,-0.18 23.73,-3.8 63.6,-10.24 39.85,-6.46 60.74,-9.69 62.63,-9.69 2.11,0 3.63,3.03 4.38,8.92 1.91,22.98 6.08,46.33 12.72,69.69 19.37,-15.21 44.81,-34.19 76.14,-56.77 38.91,-23.75 76.69,-35.5 112.94,-35.5 69.68,0 117.34,20.12 142.77,60.54 18.99,29.82 28.48,77.66 28.48,144.1 0,11.59 -0.38,29.06 -0.95,52.79 -0.57,23.72 -0.77,41.56 -0.77,53.53 0,24.68 0.4,61.89 1.15,111.06 0.76,49.36 1.14,86.58 1.14,111.25zm754.63 -492.28c0,1.52 -0.58,4.75 -1.72,10.06 -14.8,84.87 -22.21,157.96 -22.21,219.47 0,3.8 4.75,86.95 14.26,249.65l0.55 7.78c0.39,10.83 -4.55,16.15 -14.81,16.15 -10.24,0 -25.61,1.14 -46.31,3.6 -20.5,2.46 -35.87,3.6 -45.94,3.6 -7.03,0 -12.34,-12.91 -16.14,-38.73 -3.8,-25.81 -7.21,-38.73 -10.64,-38.73 -2.28,0 -12.14,7.23 -29.98,21.64 -21.84,17.66 -42.34,31.15 -61.14,40.45 -29.42,14.8 -58.66,22.21 -87.9,22.21 -71.95,0 -132.71,-28.67 -182.05,-86.19 -46.71,-54.87 -70.06,-118.85 -70.06,-191.94 0,-82.21 23.53,-150.35 70.63,-204.09 49.34,-56 114.28,-83.9 194.77,-83.9 56.77,0 106.31,19.73 148.47,59.03 6.26,7.41 16.12,18.24 29.61,32.28 0.95,1.14 2.09,1.71 3.23,1.71 2.26,0 5.49,-11.58 9.49,-35.13 4.17,-23.33 9.29,-35.11 15.75,-35.11 10.06,0 28.87,2.84 56.4,8.35 30.55,6.64 45.74,12.72 45.74,17.84zm-142.38 232.56c0,-45.56 -13.49,-84.47 -40.63,-117.13 -28.49,-35.11 -64.93,-52.77 -109.55,-52.77 -44.42,0 -81.44,17.46 -111.25,52.21 -28.47,33.4 -42.71,72.52 -42.71,117.69 0,44.82 14.24,83.73 42.71,116.77 29.81,34.36 66.83,51.62 111.25,51.62 43.47,0 79.74,-17.64 108.98,-52.77 27.53,-33.04 41.2,-71.37 41.2,-115.62zm650.03 169.16c0,8.17 -0.77,19.18 -2.28,33.22 -1.72,17.29 -2.86,28.49 -3.23,33.61 -0.38,6.64 -0.95,10.63 -1.72,12.15 -1.51,2.66 -4.92,5.12 -10.43,7.78 -30.38,14.63 -78.04,21.83 -143.15,21.83 -85.99,0 -129.29,-39.3 -129.66,-117.88 0,-31.53 0.57,-78.8 1.71,-142.01 1.14,-63.22 1.72,-110.68 1.72,-142.2 0,-15.18 -7.61,-23.35 -22.79,-24.5 -13.86,0 -27.35,-0.17 -40.64,-0.57 -7.77,-1.89 -11.77,-17.07 -11.77,-45.74 0,-10.63 0.77,-22.03 2.28,-33.98 1.14,-8.92 7.03,-14.24 17.84,-16.15 9.12,0 18.23,-0.18 27.15,-0.57 17.1,-0.75 25.64,-8.35 25.64,-22.78 0,-14.81 -0.37,-37.39 -1.14,-67.95 -0.77,-30.38 -1.14,-53.17 -1.14,-68.35 0,-27.15 5.12,-40.64 15.57,-40.64 3.23,0 37.96,5.71 103.85,17.09 8.54,1.15 12.72,5.12 12.72,12.15 0,16.52 -1.34,41.02 -4,73.66 -2.66,32.65 -3.98,57.15 -3.98,73.47 0,10.83 5.12,16.14 15.18,16.14l134.23 0c6.26,0 9.49,2.29 9.49,6.64 0,4.37 -0.76,11.6 -2.08,21.46 -1.34,9.69 -1.91,17.09 -1.91,21.84 0,5.49 0.19,14.04 0.57,25.62 0.39,11.4 0.57,19.94 0.57,25.44 0,7.02 -5.12,10.63 -15.56,10.63 -15,0 -37.41,-0.95 -67.59,-2.84 -29.99,-1.91 -52.4,-2.85 -67.4,-2.85 -2.84,0 -5.12,10.63 -6.64,31.7 -0.77,26.38 -1.14,63.22 -1.14,110.87l0 82.96c0,31.9 3.03,54.11 8.92,66.65 8.74,19.36 26.96,29.04 54.68,29.04 11.4,0 28.1,-2.48 50.31,-7.4 22.01,-4.94 38.53,-7.4 49.16,-7.4 4.38,0 6.66,3.23 6.66,9.86zm702.03 -402.86c0,27.15 -1.14,67.97 -3.42,122.85 -2.29,54.66 -3.41,95.67 -3.41,123.2 0,26.95 0.75,67.58 2.46,121.51 1.72,53.91 2.46,94.53 2.46,121.49 0,7.4 -3.4,12.34 -10.43,14.43 -3.03,0.77 -40.82,1.14 -113.34,1.14 -4.37,0 -7.03,-13.86 -7.97,-41.76 -0.95,-27.73 -3.03,-41.76 -6.46,-41.76 -1.89,0 -4.55,1.69 -8.35,5.11 -61.89,53.74 -122.83,80.7 -183.2,80.7 -81.83,0 -135.94,-29.62 -162.13,-89.04 -16.32,-36.65 -24.49,-102.71 -24.49,-198.03 0,-85.99 6.83,-158.9 20.5,-218.7 3.23,-14.41 9.31,-21.64 18.23,-21.64 10.81,0 26.96,0.2 48.59,0.57 21.47,0.38 37.59,0.57 48.42,0.57 7.41,0 11.21,3.98 11.21,12.15 0,14.44 -2.48,38.54 -7.23,72.35 -5.12,36.05 -7.78,61.31 -8.15,76.12 -1.14,22.41 -1.71,46.88 -1.71,73.46 0,64.94 4.54,108.42 13.86,130.8 15.95,40.07 51.25,60 105.93,60 23.35,0 50.88,-11.58 82.78,-34.56 33.39,-24.1 50.68,-47.27 52,-69.48 1.91,-27.71 2.86,-125.67 2.86,-293.68 0,-18.04 7.6,-27.16 22.78,-27.16l92.07 0c10.83,0 16.14,6.46 16.14,19.36zm539.16 -17.84c0,40.82 -2.85,78.03 -8.37,111.45 -1.12,8.54 -4.92,12.72 -11.18,12.72 -7.8,0 -19.57,-0.77 -35.32,-2.48 -15.95,-1.7 -27.9,-2.47 -36.08,-2.47 -46.88,0 -76.89,13.1 -89.78,39.5 -7.8,15.93 -11.78,49.17 -11.78,99.48l0 61.31c0,20.7 0.77,52.22 2.29,94.56 1.51,42.13 2.26,73.66 2.26,94.53 0,9.88 -4.17,15 -12.72,15 -11.38,0 -28.65,-0.19 -51.82,-0.57 -23.16,-0.37 -40.63,-0.57 -52.03,-0.57 -8.35,0 -12.72,-4.55 -12.72,-13.86 0,-29.99 0.57,-75.38 1.54,-135.75 0.94,-60.37 1.32,-105.93 1.32,-136.29 0,-91.52 -8.35,-165.18 -25.07,-220.81 -0.75,-3.03 -1.12,-5.12 -1.12,-6.63 0,-4.55 2.46,-7.6 7.21,-9.49 13.47,-1.52 32.64,-3.8 57.34,-6.84 39.67,-7.6 58.08,-11.4 55.05,-11.4 5.89,0 9.86,11.01 11.58,33.04 1.89,22.21 5.31,33.22 10.06,33.22 0.75,0 1.71,-0.37 2.85,-1.14 15.19,-9.67 30.37,-19.36 45.74,-29.22 16.72,-10.06 33.79,-17.49 51.45,-22.41 14.44,-4.37 33.05,-6.65 55.83,-6.65 29.04,0 43.47,3.99 43.47,11.77zm710.19 18.98c0,1.52 -0.57,4.75 -1.71,10.06 -14.81,84.87 -22.21,157.96 -22.21,219.47 0,3.8 4.74,86.95 14.25,249.65l0.55 7.78c0.4,10.83 -4.55,16.15 -14.8,16.15 -10.24,0 -25.62,1.14 -46.32,3.6 -20.49,2.46 -35.87,3.6 -45.93,3.6 -7.03,0 -12.35,-12.91 -16.15,-38.73 -3.8,-25.81 -7.21,-38.73 -10.63,-38.73 -2.29,0 -12.15,7.23 -29.99,21.64 -21.84,17.66 -42.33,31.15 -61.14,40.45 -29.41,14.8 -58.65,22.21 -87.89,22.21 -71.95,0 -132.72,-28.67 -182.06,-86.19 -46.71,-54.87 -70.06,-118.85 -70.06,-191.94 0,-82.21 23.53,-150.35 70.63,-204.09 49.34,-56 114.28,-83.9 194.78,-83.9 56.76,0 106.3,19.73 148.46,59.03 6.26,7.41 16.13,18.24 29.61,32.28 0.95,1.14 2.09,1.71 3.23,1.71 2.27,0 5.5,-11.58 9.49,-35.13 4.18,-23.33 9.3,-35.11 15.76,-35.11 10.06,0 28.86,2.84 56.39,8.35 30.56,6.64 45.74,12.72 45.74,17.84zm-142.38 232.56c0,-45.56 -13.49,-84.47 -40.62,-117.13 -28.49,-35.11 -64.94,-52.77 -109.56,-52.77 -44.42,0 -81.44,17.46 -111.25,52.21 -28.47,33.4 -42.71,72.52 -42.71,117.69 0,44.82 14.24,83.73 42.71,116.77 29.81,34.36 66.83,51.62 111.25,51.62 43.48,0 79.75,-17.64 108.99,-52.77 27.52,-33.04 41.19,-71.37 41.19,-115.62zm480.3 -500.42l-0.57 7.2c-7.97,137.83 -11.95,256.31 -11.95,355.39 0,44.05 0.75,110.13 2.27,198.2 1.53,88.1 2.08,153.98 2.08,197.83 0,8.55 -2.83,12.72 -8.72,12.72l-106.31 0c-6.65,0 -10.06,-4.17 -10.06,-12.72 0,-43.85 0.37,-109.73 1.12,-197.83 0.77,-88.07 1.14,-154.15 1.14,-198.2 0,-40.05 -1.89,-100.22 -5.69,-180.54 -3.8,-80.29 -5.69,-140.09 -5.69,-179.77 0,-7.4 3.8,-11.2 11.58,-11.2 6.64,0 16.7,0.57 29.99,1.71 13.29,1.12 23.18,1.69 30.01,1.69 6.83,0 17.27,-0.57 30.93,-1.69 13.69,-1.14 23.75,-1.71 30.38,-1.71 6.64,0 9.87,3.03 9.49,8.92zm688.77 472.52c0,27.33 -11.78,45.76 -35.5,55.06 -16.15,5.88 -131,16.89 -344.96,33.04 4.75,32.64 22.78,60.37 54.11,83.33 29.79,21.83 61.69,32.84 95.87,32.84 58.84,0 112.77,-18.79 161.74,-56.18 6.08,-4.94 11.97,-9.69 17.86,-14.43 3.03,0 4.92,0.37 5.87,1.14 0.96,0.75 7.97,13.47 20.89,38.34 13.09,25.06 19.55,38.35 19.55,40.25 0,2.28 -3.03,6.45 -8.92,12.72 -54.48,57.53 -124.34,86.38 -209.78,86.38 -86.01,0 -154.53,-25.62 -205.8,-77.07 -51.06,-51.27 -76.7,-119.8 -76.7,-205.43 0,-76.5 24.5,-142.95 73.29,-199.72 51.63,-59.03 114.66,-88.47 189.66,-88.47 69.66,0 127.77,25.64 174.47,76.72 45.57,49.73 68.35,110.28 68.35,181.48zm-132.14 -33.79c0,-30.75 -12.15,-58.1 -36.45,-81.83 -24.3,-23.73 -51.65,-35.5 -82.21,-35.5 -34.18,0 -64.36,13.66 -90.93,41.01 -26.58,27.33 -39.87,58.09 -39.87,92.08 0,7.77 6.64,11.57 19.93,11.57 55.05,0 120.74,-5.49 197.25,-16.32 21.45,-3.03 32.28,-6.64 32.28,-11.01zm730.7 227.05c0,1.91 -2.83,15.01 -8.35,39.5 -6.08,26.19 -9.29,42.51 -10.06,48.79 -1.52,13.1 -4.94,19.56 -10.06,19.56 -12.92,0 -30.38,-0.77 -52.22,-2.29 -24.87,-1.89 -42.14,-3.03 -51.82,-3.43 -24.87,-0.55 -60.37,-0.94 -106.69,-0.94 -36.07,0 -75.74,1.34 -119.61,4.37 -54.86,3.6 -78.41,5.51 -70.61,5.51 -7.8,0 -12.72,-3.22 -15.01,-10.06 -5.12,-17.86 -7.77,-38.55 -7.77,-62.47 0,-3.21 0.17,-7.96 0.57,-14.04 0.37,-6.27 0.57,-10.83 0.57,-13.67 0,-5.31 3.97,-11.58 11.95,-18.8 7.97,-7.21 47.28,-49.37 118.28,-126.43 35.68,-37.59 86.56,-95.3 152.64,-173.53l-244.34 0c-5.89,0 -8.92,-3.78 -8.92,-11.58 0,-10.63 2.27,-26.39 6.83,-47.46 4.55,-21.26 6.84,-36.84 6.84,-47.07 0,-4.38 5.12,-6.66 15.57,-6.66 20.68,0 51.83,0.77 93.02,2.48 41.01,1.52 72.14,2.46 92.84,2.46 101.56,0 158.9,0.57 171.99,1.89 9.32,1.14 13.86,4.95 13.86,11.6 0,55.8 -2.28,87.33 -6.83,94.34 -3.8,5.14 -35.87,41.78 -96.26,109.93 -38.91,44.22 -97.77,110.1 -176.74,197.63 123.77,-3.03 219.64,-4.55 287.61,-4.55 8.55,0 12.72,1.69 12.72,4.92zm715.7 -397.92c0,1.52 -0.57,4.75 -1.71,10.06 -14.81,84.87 -22.21,157.96 -22.21,219.47 0,3.8 4.74,86.95 14.25,249.65l0.55 7.78c0.4,10.83 -4.54,16.15 -14.8,16.15 -10.24,0 -25.62,1.14 -46.31,3.6 -20.5,2.46 -35.88,3.6 -45.94,3.6 -7.03,0 -12.35,-12.91 -16.15,-38.73 -3.8,-25.81 -7.2,-38.73 -10.63,-38.73 -2.28,0 -12.15,7.23 -29.99,21.64 -21.83,17.66 -42.33,31.15 -61.14,40.45 -29.41,14.8 -58.65,22.21 -87.89,22.21 -71.95,0 -132.72,-28.67 -182.06,-86.19 -46.7,-54.87 -70.06,-118.85 -70.06,-191.94 0,-82.21 23.53,-150.35 70.63,-204.09 49.35,-56 114.28,-83.9 194.78,-83.9 56.76,0 106.31,19.73 148.46,59.03 6.26,7.41 16.13,18.24 29.62,32.28 0.94,1.14 2.08,1.71 3.23,1.71 2.26,0 5.49,-11.58 9.49,-35.13 4.17,-23.33 9.29,-35.11 15.75,-35.11 10.06,0 28.86,2.84 56.39,8.35 30.56,6.64 45.74,12.72 45.74,17.84zm-142.38 232.56c0,-45.56 -13.49,-84.47 -40.62,-117.13 -28.49,-35.11 -64.94,-52.77 -109.56,-52.77 -44.42,0 -81.43,17.46 -111.25,52.21 -28.47,33.4 -42.7,72.52 -42.7,117.69 0,44.82 14.23,83.73 42.7,116.77 29.82,34.36 66.83,51.62 111.25,51.62 43.48,0 79.75,-17.64 108.99,-52.77 27.53,-33.04 41.19,-71.37 41.19,-115.62z"/>
    <path class="fil3" d="M3580.64 1823.38c0,78.27 -31.21,140.93 -93.89,188.26 -57.02,43.04 -126.13,64.56 -207.91,64.56 -31.46,0 -49.48,-0.8 -53.79,-2.42 -8.86,-4.03 -13.45,-16.95 -13.45,-38.47 0,-11.56 -1.34,-28.77 -4.29,-51.91 -2.97,-23.13 -4.31,-40.07 -4.31,-51.09 0,-6.74 4.84,-11.3 14.25,-13.45 6.74,-1.61 16.4,-1.61 29.05,0 16.42,1.61 24.22,2.42 23.66,2.42 99.54,0 149.3,-30.68 149.3,-91.72 0,-28.78 -21.8,-55.15 -65.1,-79.35 -70.47,-39 -111.07,-62.67 -121.57,-71.81 -43.3,-37.11 -65.09,-86.06 -65.09,-146.32 0,-78.8 29.85,-140.13 89.29,-184.24 53.79,-39.53 121.57,-59.17 203.87,-59.17 7.27,0 12.64,3.49 16.15,10.22 3.48,6.99 9.94,28.24 19.91,64.02 9.66,35.77 14.51,57.28 14.51,64.82 0,5.65 -5.1,9.41 -15.06,11.02 -33.62,4.57 -67.5,9.14 -101.67,13.18 -40.62,11.02 -60.78,33.08 -60.78,65.9 0,23.67 21.25,47.61 63.48,71.81 62.66,34.97 102.47,60.53 119.15,76.4 42.76,40.87 64.29,93.31 64.29,157.34zm999.1 -470.16c0,2.15 -0.81,6.73 -2.4,14.25 -20.99,120.23 -31.49,223.78 -31.49,310.93 0,5.38 6.74,123.18 20.18,353.7l0.81 11.03c0.53,15.31 -6.46,22.86 -20.99,22.86 -14.51,0 -36.31,1.61 -65.63,5.1 -29.04,3.5 -50.82,5.11 -65.07,5.11 -9.97,0 -17.49,-18.29 -22.86,-54.87 -5.4,-36.59 -10.24,-54.86 -15.07,-54.86 -3.23,0 -17.22,10.22 -42.51,30.66 -30.93,25.01 -59.97,44.1 -86.59,57.28 -41.69,20.99 -83.12,31.48 -124.55,31.48 -101.93,0 -188,-40.62 -257.92,-122.12 -66.18,-77.73 -99.26,-168.37 -99.26,-271.92 0,-116.47 33.36,-213.03 100.07,-289.13 69.92,-79.35 161.91,-118.89 275.96,-118.89 80.41,0 150.61,27.98 210.33,83.64 8.86,10.5 22.86,25.82 41.96,45.73 1.34,1.61 2.95,2.42 4.57,2.42 3.23,0 7.79,-16.4 13.45,-49.76 5.9,-33.08 13.17,-49.76 22.3,-49.76 14.26,0 40.9,4.04 79.89,11.84 43.32,9.41 64.82,18.01 64.82,25.28zm-201.71 329.48c0,-64.55 -19.1,-119.68 -57.57,-165.95 -40.35,-49.76 -91.98,-74.77 -155.18,-74.77 -62.95,0 -115.39,24.75 -157.62,73.96 -40.35,47.33 -60.51,102.74 -60.51,166.76 0,63.48 20.16,118.61 60.51,165.41 42.23,48.7 94.67,73.17 157.62,73.17 61.59,0 112.96,-25.02 154.37,-74.78 39.01,-46.81 58.38,-101.13 58.38,-163.8zm1141.66 -351c0,63.2 -0.53,157.89 -1.61,284.3 -1.07,126.42 -1.62,221.09 -1.62,284.04 0,125.05 -26.9,217.32 -80.41,276.76 -56.22,63.21 -146.05,94.67 -269.78,94.67 -119.14,0 -215.71,-22.6 -289.13,-67.52 -11.56,-7.26 -17.49,-13.7 -17.49,-18.82 0,5.65 7.8,-33.08 23.67,-116.47 1.62,-8.86 5.38,-13.45 11.03,-13.45 2.7,0 6.18,1.36 10.22,4.04 79.07,44.66 158.15,66.97 237.5,66.97 52.18,0 95.48,-11.56 129.64,-34.7 39.26,-26.09 59.17,-64.27 59.17,-114.02 0,-11.03 -1.08,-35.78 -3.23,-73.98 -58.36,71 -132.32,106.51 -222.42,106.51 -97.11,0 -176.99,-34.95 -239.65,-104.89 -59.99,-67.25 -89.85,-150.08 -89.85,-248.26 0,-99.79 29.05,-184.77 86.88,-254.71 61.59,-74.51 141.47,-111.88 239.92,-111.88 86.88,0 156.01,33.35 207.11,99.79 8.32,11.03 14.25,16.4 18.01,16.4 4.31,0 6.18,-4.84 6.18,-14.25 0,-6.74 -0.53,-17.77 -1.61,-32.55 -0.81,-15.07 -1.34,-26.09 -1.34,-33.36 0,-31.46 2.95,-47.33 9.41,-47.33 5.12,0 33.36,4.84 84.45,14.53 51.38,9.67 79.36,15.59 83.92,17.74 7.27,2.7 11.03,9.41 11.03,20.44zm-188.81 325.18c0,-58.64 -16.13,-108.65 -48.14,-149.55 -35.23,-44.63 -81.5,-66.96 -138.52,-66.96 -56.75,0 -102.75,22.58 -137.97,67.77 -32.02,40.88 -48.14,90.66 -48.14,148.74 0,57.3 16.4,106.78 48.95,148.21 35.22,45.17 80.94,67.77 137.16,67.77 55.68,0 101.4,-22.6 136.9,-67.77 33.08,-41.43 49.76,-90.91 49.76,-148.21zm902.58 -330.56c0,57.83 -4.04,110.54 -11.85,157.88 -1.6,12.11 -6.99,18.03 -15.85,18.03 -11.05,0 -27.71,-1.08 -50.04,-3.5 -22.6,-2.42 -39.53,-3.49 -51.11,-3.49 -66.44,0 -108.93,18.55 -127.22,55.94 -11.03,22.59 -16.68,69.67 -16.68,140.95l0 86.87c0,29.32 1.09,73.96 3.23,133.93 2.17,59.72 3.23,104.36 3.23,133.96 0,13.98 -5.91,21.24 -18.02,21.24 -16.14,0 -40.62,-0.27 -73.42,-0.81 -32.82,-0.53 -57.56,-0.8 -73.7,-0.8 -11.84,0 -18.02,-6.46 -18.02,-19.63 0,-42.5 0.81,-106.78 2.15,-192.32 1.36,-85.53 1.89,-150.08 1.89,-193.12 0,-129.64 -11.84,-234 -35.5,-312.8 -1.09,-4.31 -1.62,-7.27 -1.62,-9.41 0,-6.46 3.49,-10.77 10.22,-13.45 19.1,-2.15 46.25,-5.38 81.22,-9.69 56.22,-10.75 82.31,-16.14 78,-16.14 8.35,0 14,15.61 16.42,46.8 2.68,31.47 7.52,47.08 14.25,47.08 1.07,0 2.43,-0.55 4.04,-1.61 21.5,-13.73 43.02,-27.45 64.82,-41.43 23.67,-14.26 47.87,-24.75 72.87,-31.74 20.46,-6.19 46.81,-9.42 79.08,-9.42 41.15,0 61.61,5.66 61.61,16.68zm971.93 26.9c0,2.15 -0.81,6.73 -2.4,14.25 -20.99,120.23 -31.49,223.78 -31.49,310.93 0,5.38 6.74,123.18 20.19,353.7l0.8 11.03c0.54,15.31 -6.45,22.86 -20.99,22.86 -14.51,0 -36.3,1.61 -65.62,5.1 -29.05,3.5 -50.82,5.11 -65.08,5.11 -9.96,0 -17.48,-18.29 -22.86,-54.87 -5.4,-36.59 -10.24,-54.86 -15.06,-54.86 -3.23,0 -17.23,10.22 -42.51,30.66 -30.94,25.01 -59.98,44.1 -86.6,57.28 -41.69,20.99 -83.11,31.48 -124.54,31.48 -101.94,0 -188.01,-40.62 -257.93,-122.12 -66.17,-77.73 -99.25,-168.37 -99.25,-271.92 0,-116.47 33.35,-213.03 100.06,-289.13 69.92,-79.35 161.91,-118.89 275.96,-118.89 80.42,0 150.61,27.98 210.33,83.64 8.86,10.5 22.86,25.82 41.96,45.73 1.34,1.61 2.96,2.42 4.57,2.42 3.23,0 7.8,-16.4 13.45,-49.76 5.91,-33.08 13.17,-49.76 22.31,-49.76 14.25,0 40.89,4.04 79.88,11.84 43.32,9.41 64.82,18.01 64.82,25.28zm-201.71 329.48c0,-64.55 -19.1,-119.68 -57.57,-165.95 -40.35,-49.76 -91.97,-74.77 -155.18,-74.77 -62.95,0 -115.38,24.75 -157.62,73.96 -40.34,47.33 -60.51,102.74 -60.51,166.76 0,63.48 20.17,118.61 60.51,165.41 42.24,48.7 94.67,73.17 157.62,73.17 61.59,0 112.96,-25.02 154.37,-74.78 39.01,-46.81 58.38,-101.13 58.38,-163.8zm1204.61 -714.9c0,67.78 -2.97,169.44 -8.88,304.47 -5.92,135.27 -8.88,236.42 -8.88,303.65 0,207.37 4.57,364.46 13.73,470.97l0.8 10.22c0.54,5.37 -6.73,8.6 -21.24,10.21 -10.22,1.09 -24.48,1.09 -42.77,0 -22.33,-1.61 -32.55,-2.42 -30.93,-2.42 -7.8,0 -19.63,0.81 -34.97,2.42 -15.07,1.62 -26.9,2.43 -34.7,2.43 -7.52,0 -11.83,-18.57 -13.17,-55.41 -1.36,-36.84 -3.5,-55.41 -6.2,-55.94 -3.21,1.61 -6.99,5.1 -11.84,10.22 -71.81,78.27 -154.64,117.27 -247.97,117.27 -105.98,0 -193.13,-40.34 -261.43,-121.31 -64.57,-76.12 -96.84,-168.09 -96.84,-275.68 0,-111.9 32.55,-206.04 97.65,-282.16 68.3,-79.89 157.34,-119.68 267.35,-119.68 66.16,0 123.99,19.36 173.21,58.36 22.59,19.63 45.17,39.26 67.23,59.45 4.03,-1.62 6.2,-5.38 6.2,-11.03l0 -255.52c0,-17.21 -0.81,-43.57 -2.42,-78.8 -1.62,-35.25 -2.42,-61.61 -2.42,-79.63 0,-12.64 4.29,-18.82 12.64,-18.82 19.35,0 48.42,-1.62 86.59,-4.85 38.48,-3.22 66.99,-4.84 85.81,-4.84 8.88,0 13.45,5.4 13.45,16.42zm-196.88 716.51c0,-62.93 -19.37,-118.34 -58.36,-165.95 -41.43,-50.82 -92.8,-76.38 -154.39,-76.38 -64.57,0 -117.81,25.28 -159.77,75.57 -40.07,47.34 -59.98,103.83 -59.98,169.99 0,62.95 20.72,117.81 62.13,164.61 42.76,49.23 95.22,73.98 157.62,73.98 63.2,0 115.11,-25.03 155.98,-74.79 37.95,-46.8 56.77,-102.47 56.77,-167.03zm1222.35 -331.09c0,2.15 -0.81,6.73 -2.4,14.25 -20.99,120.23 -31.49,223.78 -31.49,310.93 0,5.38 6.74,123.18 20.19,353.7l0.8 11.03c0.53,15.31 -6.46,22.86 -20.99,22.86 -14.51,0 -36.31,1.61 -65.62,5.1 -29.05,3.5 -50.82,5.11 -65.08,5.11 -9.96,0 -17.49,-18.29 -22.86,-54.87 -5.4,-36.59 -10.24,-54.86 -15.06,-54.86 -3.23,0 -17.23,10.22 -42.52,30.66 -30.93,25.01 -59.97,44.1 -86.59,57.28 -41.69,20.99 -83.12,31.48 -124.54,31.48 -101.94,0 -188.01,-40.62 -257.93,-122.12 -66.17,-77.73 -99.25,-168.37 -99.25,-271.92 0,-116.47 33.35,-213.03 100.06,-289.13 69.92,-79.35 161.91,-118.89 275.96,-118.89 80.41,0 150.61,27.98 210.33,83.64 8.86,10.5 22.86,25.82 41.96,45.73 1.34,1.61 2.95,2.42 4.57,2.42 3.23,0 7.8,-16.4 13.45,-49.76 5.9,-33.08 13.17,-49.76 22.31,-49.76 14.25,0 40.89,4.04 79.88,11.84 43.32,9.41 64.82,18.01 64.82,25.28zm-201.71 329.48c0,-64.55 -19.1,-119.68 -57.57,-165.95 -40.35,-49.76 -91.97,-74.77 -155.18,-74.77 -62.95,0 -115.38,24.75 -157.62,73.96 -40.35,47.33 -60.51,102.74 -60.51,166.76 0,63.48 20.16,118.61 60.51,165.41 42.24,48.7 94.67,73.17 157.62,73.17 61.59,0 112.96,-25.02 154.37,-74.78 39.01,-46.81 58.38,-101.13 58.38,-163.8z"/>
   </g>
  </g>
 </g>
</svg>
