<?xml version="1.0" encoding="UTF-8"?>
<!DOCTYPE svg PUBLIC "-//W3C//DTD SVG 1.1//EN" "http://www.w3.org/Graphics/SVG/1.1/DTD/svg11.dtd">
<!-- Creator: CorelDRAW -->
<svg xmlns="http://www.w3.org/2000/svg" xml:space="preserve" width="46.243mm" height="46.243mm" version="1.1" style="shape-rendering:geometricPrecision; text-rendering:geometricPrecision; image-rendering:optimizeQuality; fill-rule:evenodd; clip-rule:evenodd"
viewBox="0 0 4624.3 4624.3"
 xmlns:xlink="http://www.w3.org/1999/xlink"
 xmlns:xodm="http://www.corel.com/coreldraw/odm/2003">
 <defs>
  <style type="text/css">
   <![CDATA[
    .str0 {stroke:#1BB18E;stroke-width:20;stroke-miterlimit:22.9256}
    .fil0 {fill:none}
   ]]>
  </style>
 </defs>
 <g id="Capa_x0020_1">
  <metadata id="CorelCorpID_0Corel-Layer"/>
  <g id="_1923734735232">
   <path class="fil0 str0" d="M-7.73 4632.02c298,-352.82 803.03,-758.05 1329.79,-495.13 -414.23,-47.91 -522.6,265.55 -546.6,416.81l3073.54 -307.36c-92.39,-76.16 -159.7,-187.37 -186,-333.38"/>
   <path class="fil0 str0" d="M425.41 3776.01c-74.34,157.96 -173.83,284.13 -285.61,378.82l371.05 -37.1m772.66 -77.27l2368.05 -236.81c-0.61,-16.76 -0.9,-33.8 -0.55,-51.3 2.38,-120.64 36.48,-224.65 100.64,-309.38"/>
   <path class="fil0 str0" d="M553.35 3296.49c-13.5,133.41 -41.25,254.19 -79.96,362.55l3417.12 -341.71c101.29,-64.01 233.73,-105.84 395.54,-122.48 123.74,-12.73 236.63,-68.06 330.54,-165.51"/>
   <path class="fil0 str0" d="M-5.92 3018.4c38.1,-39.6 72.84,-84.39 103.46,-132.91m440.86 -46.73c15.92,87.44 24.23,177.54 24.23,269.57 0,27 -0.71,53.42 -1.78,79.54l4054.66 -405.47"/>
   <path class="fil0 str0" d="M-7.1 2782.51l171.25 -17.13c50.32,-113.43 79.54,-238.56 80.55,-361.51m138.73 -11.06c57.5,105.39 102.7,218.46 133.66,337.28l1731.11 -173.11c-102.21,-100.25 -210.65,-210.1 -304.68,-324.92m1204.5 -118.07c-94.11,136.27 -216.43,267.74 -335.19,386.52l1803.76 -180.37"/>
   <path class="fil0 str0" d="M-7.73 2319.88l242.97 -24.3c-8.57,-63.24 -25.44,-124.76 -51.74,-182.54 48.74,54.65 93.52,112.92 133.91,174.32l1546.96 -154.7c-78.29,-109.14 -139.01,-221.47 -165.53,-333.24m1610.66 -165.58c11.94,119.61 -25.77,242.54 -91.87,363.5l1398.96 -139.89"/>
   <path class="fil0 str0" d="M-7.39 1857.41l1691.8 -169.18c-2.07,-128.56 50.06,-239.61 137.09,-331.61 186.33,-198.71 488.04,-199.32 675.09,-1.88 183.91,-196.33 480.01,-199.02 667.46,-9.78 58.58,59.13 97.7,120.48 120.93,183.21l924.41 -92.44c-14.82,-115.01 -18.78,-231.12 -12.25,-346.52m117.62 -13.51c14.51,121.05 57.05,251.9 83.56,341.14l218.27 -24.76"/>
   <path class="fil0 str0" d="M-7.72 1394.83l4214.95 -421.31c14.28,-120.93 40.11,-240.37 77.09,-356.15m332.27 169.52c-53.6,-10.34 -102.52,-24.82 -146.53,-17.78 -109.55,17.53 -151.64,94.96 -159.06,194.03l303.37 -30.33"/>
   <path class="fil0 str0" d="M653.54 516.21c-93.79,171.04 -262.76,275.93 -580,279.94 -24.49,0.31 -56.38,-4.56 -81.27,-9.27m0 146.86l4334.19 -434.57c51.46,-130.31 117.56,-254.78 197.69,-370.1"/>
   <path class="fil0 str0" d="M767.94 41.68c-11.94,132.14 -29.79,252.95 -64.29,357.35l3912.94 -391.32"/>
   <path class="fil0 str0" d="M4025.14 4341.37c184.9,48.74 362.86,28.45 534.62,-53.47"/>
   <polyline class="fil0 str0" points="2350.28,2659.15 2498.4,2807.27 2682.23,2625.95 "/>
  </g>
 </g>
</svg>
